<?xml version="1.0" encoding="UTF-8" standalone="no"?>
<svg
   xmlns:dc="http://purl.org/dc/elements/1.1/"
   xmlns:cc="http://creativecommons.org/ns#"
   xmlns:rdf="http://www.w3.org/1999/02/22-rdf-syntax-ns#"
   xmlns:svg="http://www.w3.org/2000/svg"
   xmlns="http://www.w3.org/2000/svg"
   viewBox="0 0 421.49332 488.98666"
   height="488.98666"
   width="421.49332"
   xml:space="preserve"
   id="svg2"
   version="1.1"><metadata
     id="metadata8"><rdf:RDF><cc:Work
         rdf:about=""><dc:format>image/svg+xml</dc:format><dc:type
           rdf:resource="http://purl.org/dc/dcmitype/StillImage" /></cc:Work></rdf:RDF></metadata><defs
     id="defs6" /><g
     transform="matrix(1.3333333,0,0,-1.3333333,0,488.98667)"
     id="g10"><g
       transform="scale(0.1)"
       id="g12"><path
         id="path14"
         style="fill:#f7915a;fill-opacity:1;fill-rule:nonzero;stroke:none"
         d="m 3113.08,3014.57 c 44.09,64.78 5.4,88.17 -44.98,96.27 80.07,68.38 8.99,106.17 -62.09,104.37 25.2,72.88 -55.33,83.22 -102.57,71.49 -47.23,-11.73 -113.36,-70.59 -122.8,-124.58 -9.46,-53.98 -22.95,-67.48 -67.49,-129.56 -93.12,-133.6 -53.53,-237.81 -53.53,-237.81 0,0 121.46,-177.86 215.14,-170.52 202.55,64.93 147.45,260.78 147.45,260.78 0,0 71.08,-3.6 110.13,27.89 39.05,31.49 35.63,91.77 -19.26,101.67" /><path
         id="path16"
         style="fill:#f9a674;fill-opacity:1;fill-rule:nonzero;stroke:none"
         d="m 3113.08,3014.57 c 0.49,0.71 0.9,1.39 1.37,2.09 -44.67,-35.72 -122.82,-54.39 -124.43,-54.03 -10.32,2.33 -13.9,14.34 -21.79,26.75 56.59,-11.48 153.71,45.59 157.47,94.99 -10.39,14.43 -31.89,22.16 -56.3,26.23 -30.71,-15.6 -47.19,-30.33 -85.2,-34.62 -4.28,-19.12 -31.23,-47.75 -52.82,-58.55 -9.88,5.01 -16.48,9.06 -32.99,18.17 9.78,0.34 57.24,18.11 44.2,48.92 62.4,4.46 164.65,67.71 156.23,98.11 -13.16,21.96 -52.22,33.33 -91.57,32.58 -32.88,-37.05 -73.21,-63.44 -105.11,-74.23 -0.76,-1.05 -5.44,-49.03 -47.28,-86.82 -1.61,-1.03 -33.74,1.01 -56.22,2.7 53.97,5.62 75.79,60.73 59.59,71.53 60.03,37.33 149.02,86.82 134.99,147.73 -22.51,16.72 -61.92,17.5 -89.78,10.58 -47.23,-11.73 -113.36,-70.59 -122.8,-124.58 -9.46,-53.98 -22.95,-67.48 -67.49,-129.56 -93.12,-133.6 -53.53,-237.81 -53.53,-237.81 0,0 80.47,-117.82 160.94,-157.7 111.11,50.79 223.24,143.85 185.45,292.95 32.84,-44.54 137.41,-1.68 147.01,57.32 -6.74,13.23 -19.86,23.63 -39.94,27.25" /><path
         id="path18"
         style="fill:#fac09c;fill-opacity:1;fill-rule:nonzero;stroke:none"
         d="m 3113.08,3014.57 c 0.49,0.71 0.9,1.39 1.37,2.09 -44.67,-35.72 -122.82,-54.39 -124.43,-54.03 -10.32,2.33 -13.9,14.34 -21.79,26.75 0.55,-0.11 -11,13.54 -21.6,16.19 67.93,-18.05 158.35,25.64 172,86.15 -11.59,9.77 -29.39,15.57 -49.23,18.88 -30.71,-15.6 -47.19,-30.33 -85.2,-34.62 -4.28,-19.12 -31.23,-47.75 -52.82,-58.55 -6.29,3.19 -11.27,6 -18.29,9.96 -11.4,3.34 -13.91,9.62 -25.12,13.36 26.99,0 53.3,26.21 46.18,48.16 59.54,8.23 138.89,53.34 162.77,96.47 -14.68,20.14 -52.01,30.55 -89.67,29.83 -32.88,-37.05 -73.21,-63.44 -105.11,-74.23 -0.76,-1.05 -5.44,-49.03 -47.28,-86.82 -1.61,-1.03 -53.92,2.54 -61.41,0.68 27,16.19 70.86,41.19 49.26,78.98 46.41,25.67 163.3,81.39 137.57,149.49 -22.76,9.54 -53.75,9.12 -76.84,3.39 -47.23,-11.73 -113.36,-70.59 -122.8,-124.58 -9.46,-53.98 -22.95,-67.48 -67.49,-129.56 -93.12,-133.6 -53.53,-237.81 -53.53,-237.81 0,0 68.94,-100.88 143,-147.54 128.37,37.5 221.31,147.83 199.56,292.33 76.49,-55.24 142.39,31.04 146.28,54.88 -7.44,9.76 -19.08,17.21 -35.38,20.15" /><path
         id="path20"
         style="fill:#d94f3b;fill-opacity:1;fill-rule:nonzero;stroke:none"
         d="m 3130.65,2915 c -30.69,-24.74 -81.36,-27.42 -101.72,-27.42 -4.14,0 -6.55,0.12 -6.59,0.13 l -3.75,0.18 1.02,-3.61 c 0.55,-1.94 52.07,-193.89 -145.37,-257.38 -89.31,-6.58 -206.72,161.17 -212.2,169.1 -2.16,6.14 -35.55,107.5 53.31,234.99 4.95,6.9 9.51,13.19 13.73,19.02 34.19,47.16 45.71,63.05 54.21,111.65 9.11,52.03 74.04,110.8 120.81,122.42 10.61,2.63 22.37,4.03 34.04,4.03 29.24,0 52.11,-8.56 62.74,-23.47 8.65,-12.15 9.52,-28.48 2.59,-48.55 l -1.27,-3.68 3.88,0.1 c 1.59,0.04 3.2,0.06 4.79,0.06 37.17,0 78.85,-11.28 88.14,-36.48 6.48,-17.57 -4.82,-39.41 -32.67,-63.2 l -4.44,-3.79 5.77,-0.92 c 32.62,-5.25 52.58,-15.83 59.31,-31.45 6.47,-15.01 1.04,-35.41 -16.13,-60.64 l -2.34,-3.44 4.09,-0.74 c 21.74,-3.92 36.92,-16.75 41.63,-35.19 5.49,-21.51 -3.77,-45.74 -23.58,-61.72 z m -13.11,101.4 c 16.5,25.35 21.34,46.36 14.4,62.47 -7.1,16.47 -26.54,27.78 -57.82,33.66 33.4,30.14 34.86,52.11 29.96,65.42 -10.2,27.64 -54.16,40.02 -93.21,40.02 -0.37,0 -0.74,0 -1.11,-0.01 6.2,20.18 4.69,36.93 -4.48,49.81 -11.65,16.36 -36.13,25.74 -67.14,25.74 -12.1,0 -24.32,-1.45 -35.34,-4.19 -48.61,-12.07 -115.12,-71.29 -124.82,-126.73 -8.3,-47.37 -19.63,-63 -53.27,-109.42 -4.22,-5.82 -8.79,-12.13 -13.77,-19.06 -92.86,-133.24 -54.25,-239.25 -53.85,-240.31 l 0.3,-0.57 c 4.79,-7.02 118.47,-171.92 211.65,-171.92 1.99,0 3.97,0.08 5.93,0.23 l 0.62,0.13 c 187.65,60.15 156.22,233.57 150.08,260.54 0.92,-0.01 2.02,-0.03 3.26,-0.03 20.93,0 73.08,2.79 105.1,28.62 21.46,17.31 31.44,43.71 25.43,67.25 -4.96,19.43 -20.14,33.24 -41.92,38.35" /><path
         id="path22"
         style="fill:#f7915a;fill-opacity:1;fill-rule:nonzero;stroke:none"
         d="m 2723.95,3016.37 c 37.79,40.49 42.75,73.77 37.35,103.47 -5.41,29.69 -48.59,74.68 -82.78,68.37 -34.2,-6.29 -13.5,-56.67 -55.79,-101.66 -42.28,-44.99 -53.98,-68.39 -45.88,-106.17 8.09,-37.79 40.63,-49.06 55.4,-95.16 14.78,-46.1 8.48,-78.49 39.91,-107.78 l 100.38,17.6 c 0,0 83.67,183.54 -48.59,221.33" /><path
         id="path24"
         style="fill:#f9a674;fill-opacity:1;fill-rule:nonzero;stroke:none"
         d="m 2723.95,3016.37 c 37.79,40.49 42.75,73.77 37.35,103.47 -4.74,26.02 -38.51,63.79 -69.81,68.48 -16.12,-15.4 -19.27,-53 -19.27,-53 -16.2,-64.78 -33.9,-83.46 -49.49,-104.11 -16.64,-22.04 -16.19,-47.23 -5.4,-63.43 46.24,-55.48 41.01,-126.79 55.51,-190.21 l 99.7,17.47 c 0,0 83.67,183.54 -48.59,221.33" /><path
         id="path26"
         style="fill:#fac09c;fill-opacity:1;fill-rule:nonzero;stroke:none"
         d="m 2723.95,3016.37 c 37.79,40.49 42.75,73.77 37.35,103.47 -4.01,22 -28.76,52.3 -55.22,64.01 -15.87,-13.63 -21.53,-66.15 -34.09,-97.98 -13.03,-33.05 -35.61,-55.13 -39.13,-81.65 -5,-37.47 24.31,-69.61 34.41,-104.59 10.72,-37.13 12.15,-89.75 9.55,-121.36 l 95.72,16.77 c 0,0 83.67,183.54 -48.59,221.33" /><path
         id="path28"
         style="fill:#d94f3b;fill-opacity:1;fill-rule:nonzero;stroke:none"
         d="m 2728.84,3017.71 c 30.5,33.9 41.67,66.6 35.12,102.61 -3.46,18.98 -21.39,43.4 -42.64,58.07 -10.66,7.37 -26.82,15.5 -43.3,12.49 -18.94,-3.5 -22.53,-19.06 -27.07,-38.75 -4.31,-18.67 -9.67,-41.92 -30.18,-63.74 -44.65,-47.49 -54.65,-70.82 -46.56,-108.57 4.18,-19.5 14.62,-32.15 25.69,-45.54 11.08,-13.41 22.54,-27.28 29.78,-49.88 4.76,-14.84 7.25,-27.97 9.67,-40.67 4.89,-25.7 9.11,-47.89 30.96,-68.26 l 3.68,3.95 c -20.56,19.16 -24.43,39.53 -29.34,65.32 -2.33,12.26 -4.98,26.16 -9.82,41.31 -7.56,23.59 -19.89,38.5 -30.77,51.67 -11.09,13.42 -20.67,25.01 -24.57,43.23 -7.63,35.58 2.09,57.87 45.21,103.75 21.51,22.88 27.05,46.91 31.5,66.21 4.42,19.15 7.34,31.8 22.81,34.65 14.65,2.7 29.42,-4.83 39.25,-11.61 20.18,-13.93 37.16,-36.9 40.38,-54.6 6.52,-35.8 -4.79,-66.99 -36.66,-101.14 l -3.01,-3.23 4.24,-1.21 c 29.84,-8.52 50.77,-25.41 62.21,-50.2 30.32,-65.66 -14.88,-166.4 -15.34,-167.41 0,0 21.83,35.4 28.46,77.77 4.7,30.05 4.8,63.71 -8.2,91.89 -11.6,25.11 -32.27,42.55 -61.5,51.89" /><path
         id="path30"
         style="fill:#d94f3b;fill-opacity:1;fill-rule:nonzero;stroke:none"
         d="m 2686.98,2997.06 c 1.25,0.2 30.81,5.23 45.6,24.92 l -4.31,3.24 c -13.48,-17.93 -41.29,-28.16 -41.29,-28.16" /><path
         id="path32"
         style="fill:#d94f3b;fill-opacity:1;fill-rule:nonzero;stroke:none"
         d="m 2804.98,3054.16 c 1.8,0.05 168.49,1.07 214.63,-169.86 l 5.21,1.41 c -33.32,123.42 -128.17,159.24 -181.8,169.62 -20.83,4.03 -38.04,-1.17 -38.04,-1.17" /><path
         id="path34"
         style="fill:#d94f3b;fill-opacity:1;fill-rule:nonzero;stroke:none"
         d="m 2905.73,3145.13 -6.91,-3.59 -0.09,-1.52 c -3.26,-54.66 -48.13,-86.52 -48.59,-86.83 l 3.08,-4.43 c 1.92,1.33 46.67,33.03 50.8,89.4 l 4.2,2.18 c 47.55,24.73 88.63,46.08 101.15,76.48 l -4.99,2.06 c -11.77,-28.58 -52.03,-49.51 -98.65,-73.75" /><path
         id="path36"
         style="fill:#d94f3b;fill-opacity:1;fill-rule:nonzero;stroke:none"
         d="m 2864.5,3128.39 c 0.98,0.07 24.18,1.79 38.16,9.07 l -2.48,4.79 c -13,-6.77 -35.68,-13.86 -35.68,-13.86" /><path
         id="path38"
         style="fill:#d94f3b;fill-opacity:1;fill-rule:nonzero;stroke:none"
         d="m 2986.02,3079.76 -1.42,-0.22 -0.61,-1.31 c -19.55,-42.37 -53.24,-58.59 -53.57,-58.75 l 2.29,-4.88 c 1.43,0.67 35.09,16.79 55.58,60.06 40.85,6.77 73.74,22.09 90.38,42.14 l -4.16,3.45 c -16,-19.29 -48.26,-34.05 -88.49,-40.49" /><path
         id="path40"
         style="fill:#d94f3b;fill-opacity:1;fill-rule:nonzero;stroke:none"
         d="m 2980.84,3074.16 c -10.97,0 -21.54,2.88 -22.11,3.04 0,0 18.14,0.65 30.24,3.07 l 1.05,-5.3 c -2.95,-0.58 -6.08,-0.81 -9.18,-0.81" /><path
         id="path42"
         style="fill:#d94f3b;fill-opacity:1;fill-rule:nonzero;stroke:none"
         d="m 2988.62,2958.36 -1.17,5.26 c 0.8,0.18 80.86,18.33 123.94,53.05 l 3.38,-4.2 c -44.06,-35.53 -122.82,-53.37 -126.15,-54.11" /><path
         id="path44"
         style="fill:#f7915a;fill-opacity:1;fill-rule:nonzero;stroke:none"
         d="m 169.875,1112.1 c 0,0 4.031,-51.29 38.445,-55.33 34.418,-4.05 66.801,47.23 74.231,112.01 3.367,43.87 3.367,43.87 3.367,43.87 l -84.344,6.07 c 0,0 -22.226,-64.78 -31.699,-106.62" /><path
         id="path46"
         style="fill:#f9a674;fill-opacity:1;fill-rule:nonzero;stroke:none"
         d="m 252.133,1215.08 -50.559,3.64 c 0,0 -22.226,-64.78 -31.699,-106.62 0,0 3.496,-43.64 31.105,-53.53 50.25,29.27 62.504,96.6 51.153,156.51" /><path
         id="path48"
         style="fill:#fac09c;fill-opacity:1;fill-rule:nonzero;stroke:none"
         d="m 236.879,1216.18 -35.305,2.54 c 0,0 -22.226,-64.78 -31.699,-106.62 0,0 2.836,-34.67 23.043,-49.19 53.016,26.98 45.473,99.16 43.961,153.27" /><path
         id="path50"
         style="fill:#d94f3b;fill-opacity:1;fill-rule:nonzero;stroke:none"
         d="m 283.02,1210.15 -3.157,-41.06 c -7.316,-63.92 -39.062,-113.46 -71.226,-109.64 -30.278,3.56 -35.563,47.83 -36.028,52.47 8.446,37.15 27.082,92.84 30.848,103.96 z m -84,9.44 c -0.223,-0.64 -22.387,-65.4 -31.778,-106.9 l -0.086,-0.4 0.032,-0.4 c 0.171,-2.18 4.621,-53.55 40.82,-57.8 1.375,-0.16 2.758,-0.24 4.137,-0.25 h 0.003 c 34.176,0 65.59,49.29 73.094,114.74 l 3.582,46.56 -89.133,6.42 -0.671,-1.97" /><path
         id="path52"
         style="fill:#f7915a;fill-opacity:1;fill-rule:nonzero;stroke:none"
         d="m 130.746,1234.07 c -8.996,-20.75 -18.894,-47.74 -18.894,-47.74 0,0 -26.3286,-93.8 -13.727,-115.39 12.594,-21.59 66.813,5.62 92,51.51 25.195,47.68 37.773,124.76 37.773,124.76 0,0 -63.863,35.5 -97.152,-13.14" /><path
         id="path54"
         style="fill:#f9a674;fill-opacity:1;fill-rule:nonzero;stroke:none"
         d="m 166.133,1258.26 c -12.848,-2.72 -25.473,-9.71 -35.387,-24.19 -8.996,-20.75 -18.894,-47.74 -18.894,-47.74 0,0 -26.3286,-93.8 -13.727,-115.39 0.5273,-0.91 1.2305,-1.61 1.902,-2.35 80.325,21.77 82.602,116.61 66.106,189.67" /><path
         id="path56"
         style="fill:#fac09c;fill-opacity:1;fill-rule:nonzero;stroke:none"
         d="m 153.961,1254.17 c -8.469,-3.93 -16.473,-10.25 -23.215,-20.1 -8.996,-20.75 -18.894,-47.74 -18.894,-47.74 0,0 -23.6684,-84.38 -15.3481,-111.48 72.2111,25.49 72.0311,111.74 57.4571,179.32" /><path
         id="path58"
         style="fill:#d94f3b;fill-opacity:1;fill-rule:nonzero;stroke:none"
         d="m 187.762,1123.75 c -18.934,-34.48 -53.785,-57.64 -74.461,-57.64 -6.129,0 -10.453,2.08 -12.852,6.19 -9.8552,16.9 6.766,87.52 13.938,113.1 0.093,0.27 9.968,27.16 18.586,47.14 11.113,16.24 26.988,24.47 47.191,24.47 20.352,0 39.141,-8.51 44.738,-11.29 -2.144,-12.2 -14.664,-79.43 -37.14,-121.97 z m -7.598,138.66 c -22.09,0 -39.469,-9.02 -51.891,-27.27 -8.933,-20.58 -18.859,-47.61 -19.023,-48.08 -1.086,-3.88 -26.4805,-95.16 -13.4609,-117.48 3.3867,-5.8 9.4409,-8.87 17.5119,-8.87 h 0.008 c 22.214,0 59.336,24.29 79.203,60.48 25.109,47.53 37.926,124.81 38.051,125.59 l 0.304,1.87 -1.66,0.92 c -0.937,0.52 -23.394,12.84 -49.043,12.84" /><path
         id="path60"
         style="fill:#f7915a;fill-opacity:1;fill-rule:nonzero;stroke:none"
         d="M 205.621,1411.71 C 99.0039,1386.06 55.8164,1340.18 39.6211,1280.8 23.4258,1221.42 13.3086,1160.69 3.85547,1128.97 c -9.44141,-31.72 41.16403,-60.06 90.64843,0 30.5941,35.76 43.6681,79.81 58.0351,89.75 79.406,54.96 165.801,-12.19 257.77,35.99 94.468,49.48 110.308,107.93 110.308,107.93 l -197.246,110.12 c 0,0 -11.129,-35.41 -117.75,-61.05" /><path
         id="path62"
         style="fill:#f9a674;fill-opacity:1;fill-rule:nonzero;stroke:none"
         d="m 139.488,1278.1 c 80.981,-48.59 178.153,21.59 264.52,32.39 38.547,4.28 77.019,28.99 96.695,63.27 l -177.332,99 c 0,0 -11.129,-35.41 -117.75,-61.05 C 99.0039,1386.06 55.8164,1340.18 39.6211,1280.8 23.4258,1221.42 13.3086,1160.69 3.85547,1128.97 c -1.45703,-4.9 -1.47656,-9.71 -0.29297,-14.14 73.2422,-20.7 125.3435,99.76 135.9255,163.27" /><path
         id="path64"
         style="fill:#fac09c;fill-opacity:1;fill-rule:nonzero;stroke:none"
         d="m 133.195,1292.61 c 118.516,-58.05 261.348,7.38 364.102,83.05 l -173.926,97.1 c 0,0 -11.129,-35.41 -117.75,-61.05 C 99.0039,1386.06 55.8164,1340.18 39.6211,1280.8 23.8477,1222.95 13.8359,1163.91 4.59375,1131.57 49.9688,1095.01 127.91,1223.94 133.195,1292.61" /><path
         id="path66"
         style="fill:#d94f3b;fill-opacity:1;fill-rule:nonzero;stroke:none"
         d="m 517.352,1361.37 c -3.817,-10.52 -25.817,-61.07 -108.297,-104.27 -23.867,-12.5 -49.617,-18.32 -81.043,-18.32 -16.157,0 -32.332,1.47 -47.977,2.88 -15.156,1.39 -30.828,2.81 -45.996,2.81 -33.914,0 -59.523,-7.26 -83.039,-23.53 -7.281,-5.04 -13.848,-17.43 -22.16,-33.1 -9.067,-17.09 -20.344,-38.36 -36.4181,-57.15 -24.5352,-29.77 -46.3906,-34.22 -57.2344,-34.22 -10.6914,0 -19.8945,4.13 -25.26172,11.32 -4.40234,5.91 -5.64062,13.16 -3.48437,20.41 4.44529,14.92 9.00779,36.07 14.29299,60.57 6.039,28.01 12.8828,59.75 21.4922,91.32 18.0742,66.27 68.6644,106.06 164.0234,128.99 90.438,21.76 113.188,50.64 118.336,59.91 z m -196.559,112.2 c -0.105,-0.34 -11.871,-34.24 -115.805,-59.24 -97.511,-23.45 -149.3161,-64.41 -167.9685,-132.82 -8.6445,-31.7 -15.5117,-63.53 -21.5664,-91.6 -5.2539,-24.39 -9.79685,-45.45 -14.17966,-60.17 -2.66016,-8.93 -1.121096,-17.86 4.32812,-25.17 6.39064,-8.58 17.17574,-13.5 29.58594,-13.5 11.7969,0 35.4609,4.7 61.3672,36.15 16.4333,19.21 27.8633,40.76 37.0503,58.08 7.973,15.03 14.266,26.91 20.465,31.2 22.559,15.61 47.227,22.57 79.969,22.57 14.922,0 29.777,-1.35 45.504,-2.78 15.766,-1.43 32.066,-2.91 48.469,-2.91 32.328,0 58.879,6.01 83.547,18.94 94.429,49.46 111.004,107.19 111.664,109.62 l 0.55,2.03 -201.988,112.77 -0.992,-3.17" /><path
         id="path68"
         style="fill:#d94f3b;fill-opacity:1;fill-rule:nonzero;stroke:none"
         d="m 141.082,1209.35 4.977,-2.09 c 10.41,24.84 4.953,53.4 4.718,54.6 0,0 0.086,-29.17 -9.695,-52.51" /><path
         id="path70"
         style="fill:#f7915a;fill-opacity:1;fill-rule:nonzero;stroke:none"
         d="m 343.73,1330.28 c 0,0 -107.07,-7.2 -137.664,-76.48 -16.191,-33.28 -18.886,-55.78 -25.187,-82.77 -6.301,-26.99 -17.992,-46.78 -5.399,-66.58 12.594,-19.79 66.579,-12.59 93.575,9 26.988,21.59 36.886,88.17 36.886,88.17 0,0 41.387,-23.39 126.86,21.6 85.472,44.98 101.937,83.64 118.894,128.19 -34.316,22.96 -68.058,37.36 -68.058,37.36 L 343.73,1330.28" /><path
         id="path72"
         style="fill:#f9a674;fill-opacity:1;fill-rule:nonzero;stroke:none"
         d="m 288.824,1221.56 c 78.949,-5.75 221.715,56.17 234.949,150.05 -6.687,3.2 -40.136,17.16 -40.136,17.16 L 343.73,1330.28 c 0,0 -107.07,-7.2 -137.664,-76.48 -16.191,-33.28 -18.886,-55.78 -25.187,-82.77 -5.891,-25.24 -16.492,-44.18 -7.543,-62.73 76.25,-24.36 113.934,72.63 115.488,113.26" /><path
         id="path74"
         style="fill:#fac09c;fill-opacity:1;fill-rule:nonzero;stroke:none"
         d="m 274.449,1240.31 c 94.215,-20.94 246.168,76.93 225.906,141.43 -8.855,3.74 -16.718,7.03 -16.718,7.03 L 343.73,1330.28 c 0,0 -107.07,-7.2 -137.664,-76.48 -16.191,-33.28 -18.886,-55.78 -25.187,-82.77 -5.731,-24.54 -15.852,-43.13 -8.184,-61.18 67.821,-1.37 101.754,74.21 101.754,130.46" /><path
         id="path76"
         style="fill:#d94f3b;fill-opacity:1;fill-rule:nonzero;stroke:none"
         d="m 484.699,1391.25 -2.121,-4.97 c 0.324,-0.14 32.723,-14.05 65.828,-35.92 -15.609,-40.96 -31.5,-79.83 -116.859,-124.76 -82.879,-43.61 -123.875,-21.86 -124.289,-21.62 l -3.41,1.9 -0.578,-3.86 c -0.094,-0.66 -10.051,-65.79 -35.903,-86.46 -18.039,-14.44 -49.484,-22.87 -71.586,-19.19 -8.754,1.46 -14.98,4.75 -18.027,9.53 -8.941,14.05 -4.68,28.27 0.711,46.27 1.734,5.78 3.527,11.77 5.039,18.25 1.207,5.16 2.281,10.16 3.344,15.1 4.468,20.81 8.687,40.46 21.691,67.2 15.965,36.15 53.844,55.07 85.484,64.84 26.969,8.32 49.528,15.42 49.528,15.42 -4.438,-0.3 -109.051,-8.12 -139.906,-77.99 -13.247,-27.23 -17.54,-47.2 -22.079,-68.33 -1.05,-4.92 -2.117,-9.88 -3.312,-15.01 -1.481,-6.32 -3.25,-12.22 -4.961,-17.94 -5.559,-18.54 -10.359,-34.57 -0.094,-50.71 3.891,-6.1 11.391,-10.24 21.696,-11.95 3.714,-0.61 7.671,-0.91 11.781,-0.91 21.855,0 47.992,8.35 64.062,21.2 24.192,19.36 34.813,72.07 37.293,86.36 11.672,-4.62 52.918,-15.35 126.032,23.13 88.562,46.62 103.906,86.93 120.16,129.62 l 0.761,2.01 -1.785,1.2 c -34.133,22.83 -68.164,37.44 -68.5,37.59" /><path
         id="path78"
         style="fill:#5b70c0;fill-opacity:1;fill-rule:nonzero;stroke:none"
         d="m 1001.43,1229.51 c 0,0 -125.067,-230.772 -34.645,-453.459 35.095,-82.321 85.025,-113.36 90.425,-133.602 5.4,-20.25 25.64,-98.527 48.58,-139.008 22.95,-40.492 157.94,-118.769 292.56,-23.89 52.19,-36.891 215.46,-37.789 286.42,0 45.77,43.179 61.63,111.16 142.6,177.738 80.98,66.582 188.95,160.152 194.35,277.121 5.39,116.96 -107.97,243.2 -107.97,243.2 0,0 -424.09,-85.4 -912.32,51.9" /><path
         id="path80"
         style="fill:#9faddf;fill-opacity:1;fill-rule:nonzero;stroke:none"
         d="m 1652.12,466.578 c 12.18,3.652 23.24,7.961 32.65,12.973 45.77,43.179 61.63,111.16 142.6,177.738 58.33,47.961 130.66,109.93 168.57,184.551 -128.42,-100.469 -195.3,-207.988 -330.71,-249.66 30.5,-41.93 11.81,-80.821 -13.11,-125.602" /><path
         id="path82"
         style="fill:#4154aa;fill-opacity:1;fill-rule:nonzero;stroke:none"
         d="m 1305.53,765.25 c 107.97,27 140.36,178.148 199.74,286.12 53.99,-113.358 102.57,-226.729 183.55,-323.901 28.79,-13.5 171.39,63.429 301.88,104.543 24.55,37.5 28.96,57.949 31.02,102.398 5.39,116.96 -107.97,243.2 -107.97,243.2 0,0 -424.09,-85.4 -912.32,51.9 0,0 -86.688,-160.01 -63.504,-342.119 C 1043.93,799.289 1184.2,734.922 1305.53,765.25" /><path
         id="path84"
         style="fill:#4154aa;fill-opacity:1;fill-rule:nonzero;stroke:none"
         d="m 1589.55,851.52 c -75.57,-21.59 -156.48,-22.551 -230.03,5.511 10.79,-32.39 43.19,-53.992 53.98,-75.582 36.77,-94.527 7.11,-204.379 -19.38,-304.719 1.41,0.961 2.82,1.821 4.23,2.821 24.42,-17.27 73.18,-26.653 125.42,-27.871 -82.09,129.129 -40.83,293.23 65.78,399.84" /><path
         id="path86"
         style="fill:#4154aa;fill-opacity:1;fill-rule:nonzero;stroke:none"
         d="m 1170.57,597.91 c 0,0 10.8,10.789 16.2,5.399 -166.85,151.679 -149.01,402.821 -92.85,602.591 -30.51,7.02 -61.37,14.86 -92.49,23.61 0,0 -125.067,-230.772 -34.645,-453.459 35.095,-82.321 85.025,-113.36 90.425,-133.602 5.4,-20.25 25.64,-98.527 48.58,-139.008 10.7,-18.882 45.77,-45.941 93.79,-59.839 -30.7,46.16 -46.99,97.777 -29.01,154.308" /><path
         id="path88"
         style="fill:#192031;fill-opacity:1;fill-rule:nonzero;stroke:none"
         d="m 2019.02,934.531 c -5.14,-111.429 -102.5,-200.461 -193.35,-275.16 -48.27,-39.672 -73.43,-79.641 -95.63,-114.891 -15.32,-24.339 -28.57,-45.371 -46.86,-62.718 -32.6,-17.231 -87.75,-27.524 -147.64,-27.524 -59.66,0 -111.62,10.543 -135.63,27.512 l -1.56,1.109 -1.55,-1.097 c -41.94,-29.563 -87.1,-44.543 -134.22,-44.543 -74.79,0 -138.79,39.929 -154.44,67.543 -21.8,38.488 -41.19,111.508 -47.56,135.508 l -0.77,2.871 c -2.12,8.007 -10.21,17.031 -21.39,29.519 -18.73,20.93 -47.029,52.559 -69.127,104.41 -84.59,208.301 21.93,426.63 33.517,449.25 184.02,-51.53 379.56,-77.66 581.27,-77.66 185.82,0 313.35,23.09 328.67,26 11.16,-12.86 111.29,-131.43 106.27,-240.129 z m -104.29,246.029 -1.51,-0.31 c -1.3,-0.26 -132.37,-26.18 -329.14,-26.18 -201.98,0 -397.77,26.25 -581.92,78.04 l -2.08,0.59 -1.021,-1.9 c -1.262,-2.32 -124.633,-234.46 -34.754,-455.812 22.465,-52.699 51.125,-84.726 70.095,-105.918 10.68,-11.941 18.4,-20.558 20.2,-27.32 l 0.77,-2.871 c 6.41,-24.16 25.93,-97.699 48.08,-136.77 16.7,-29.468 81.29,-70.289 159.13,-70.289 47.68,0 93.36,14.95 135.79,44.45 25.78,-17.2 76.79,-27.418 137.17,-27.418 60.94,0 117.2,10.578 150.5,28.308 l 0.58,0.43 c 18.93,17.859 33.05,40.281 47.99,64.012 21.98,34.91 46.9,74.48 94.48,113.609 91.75,75.43 190.08,165.43 195.32,279.07 5.39,116.719 -107.51,243.859 -108.65,245.129 l -1.03,1.15" /><path
         id="path90"
         style="fill:#192031;fill-opacity:1;fill-rule:nonzero;stroke:none"
         d="m 1056.94,649.629 -4.17,-3.418 c 23.35,-28.473 74.01,-37.609 74.01,-37.609 -0.47,0.128 -47.55,13.847 -69.84,41.027" /><path
         id="path92"
         style="fill:#192031;fill-opacity:1;fill-rule:nonzero;stroke:none"
         d="m 1591.58,616.48 c 0,0 28.5,-21.121 73.65,-24.3 4.96,-0.352 10.1,-0.539 15.39,-0.539 33.54,0 73.36,7.781 114.23,33.019 l -2.83,4.602 c -103.3,-63.801 -199.48,-13.313 -200.44,-12.782" /><path
         id="path94"
         style="fill:#192031;fill-opacity:1;fill-rule:nonzero;stroke:none"
         d="m 1375.55,851.359 c 0,0 11.53,-11.488 36.62,-16.519 16.09,-3.231 36.93,-5.871 62.03,-5.871 19.26,0 41.03,1.551 65.11,5.582 16.22,2.711 50.24,16.969 50.24,16.969 -133.58,-38.36 -213.2,-0.551 -214,-0.161" /><path
         id="path96"
         style="fill:#192031;fill-opacity:1;fill-rule:nonzero;stroke:none"
         d="m 1395.81,480.461 5.09,-1.82 c 37.14,103.48 54.72,350.847 54.89,353.328 l -5.39,0.383 c -0.17,-2.481 -17.69,-249.102 -54.59,-351.891" /><path
         id="path98"
         style="fill:#a15a20;fill-opacity:1;fill-rule:nonzero;stroke:none"
         d="m 1991.13,376.578 c -29.7,35.094 -67.48,68.82 -229.43,66.133 22.94,22.937 14.63,55.469 -2.7,67.48 -26.32,18.207 -66.13,-38.332 -187.6,-30.64 -121.46,7.687 -158.83,49.777 -158.83,49.777 0,0 -29.21,-90.219 -8.51,-119.019 0,0 -46.34,0.453 -51.74,-59.379 -5.4,-59.828 20.69,-117.461 20.69,-117.461 0,0 55.34,-68.778 149.81,-68.778 94.47,0 118.76,22.938 184.89,25.637 66.13,2.703 149.81,-20.238 271.27,-10.797 121.46,9.449 199.74,65.668 209.19,98.969 9.44,33.289 -56.69,94.02 -197.04,98.078" /><path
         id="path100"
         style="fill:#b37b47;fill-opacity:1;fill-rule:nonzero;stroke:none"
         d="m 1721.21,489.941 c 16.2,-16.191 26.99,-48.582 5.39,-75.582 70.19,10.801 214.91,-12.14 200.48,-60.789 85.66,0 199.49,0.692 261.95,-68.941 0.55,34.101 -65.78,88.133 -197.9,91.949 -29.7,35.094 -67.48,68.82 -229.43,66.133 22.94,22.937 14.63,55.469 -2.7,67.48 -14.19,9.821 -32.32,-2.089 -65.02,-13.941 12.06,0.879 23.5,1.141 27.23,-6.309" /><path
         id="path102"
         style="fill:#76431b;fill-opacity:1;fill-rule:nonzero;stroke:none"
         d="m 1926.34,230.82 c -107.96,21.59 -210.53,10.801 -318.5,21.59 -21.59,0 -48.58,5.399 -59.38,21.602 -43.19,37.777 10.8,86.367 48.59,107.957 -32.4,16.203 -70.19,16.203 -97.17,48.59 -12.7,16.929 -15.39,40.48 -5.57,60.281 -60.94,15.09 -81.74,38.488 -81.74,38.488 0,0 -29.21,-90.219 -8.51,-119.019 0,0 -46.34,0.453 -51.74,-59.379 -5.4,-59.828 20.69,-117.461 20.69,-117.461 0,0 55.34,-68.778 149.81,-68.778 94.47,0 118.76,22.938 184.89,25.637 66.13,2.703 149.81,-20.238 271.27,-10.797 121.46,9.449 199.74,65.668 209.19,98.969 0.77,2.719 0.98,5.648 0.74,8.691 -70.56,-56.66 -174.66,-75.48 -262.57,-56.371" /><path
         id="path104"
         style="fill:#1f1712;fill-opacity:1;fill-rule:nonzero;stroke:none"
         d="m 2185.57,279.238 c -9.6,-33.816 -88.76,-87.828 -206.8,-97.008 -19.79,-1.539 -39.21,-2.289 -59.37,-2.289 -46.83,0 -87.37,4.137 -123.14,7.809 -33.7,3.441 -62.25,6.352 -88.66,5.281 -28.85,-1.179 -49.75,-6.16 -71.88,-11.441 -29.3,-6.981 -59.59,-14.199 -112.9,-14.199 -89.11,0 -143.63,62.918 -147.49,67.519 -2.05,4.699 -25.38,59.66 -20.32,115.781 5.07,56.278 47.23,56.918 49.02,56.918 l 5.31,-0.019 -3.09,4.301 c -17.2,23.918 2.27,94.531 7.61,112.437 11.49,-10.156 54.36,-40.949 157.37,-47.476 7.64,-0.481 15.26,-0.723 22.62,-0.723 58.31,0 96.26,15.32 121.37,25.473 13.17,5.32 23.58,9.519 31.74,9.519 4.05,0 7.39,-1 10.5,-3.152 8.43,-5.84 14.33,-16.778 15.39,-28.559 1.16,-12.851 -3.48,-25.211 -13.06,-34.801 l -4.72,-4.718 6.67,0.109 c 157.27,2.57 195.87,-27.988 227.32,-65.168 l 0.79,-0.922 1.2,-0.031 c 104.01,-3.008 165.43,-37.469 186.4,-66.09 7.54,-10.277 10.43,-20.418 8.12,-28.551 z m -193.17,100 c -30.67,36 -71.37,68.172 -224.61,66.25 7.87,9.942 11.56,21.961 10.44,34.403 -1.2,13.328 -7.98,25.789 -17.7,32.507 -4,2.774 -8.44,4.122 -13.57,4.122 -9.21,0 -20.05,-4.372 -33.77,-9.918 -26.2,-10.582 -62.08,-25.071 -119.34,-25.071 -7.25,0 -14.75,0.239 -22.28,0.707 -118.61,7.512 -156.62,48.473 -156.99,48.883 l -3.13,3.5 -1.45,-4.461 c -1.16,-3.59 -27.12,-84.789 -10.5,-117.512 -12.29,-1.648 -45.29,-10.789 -49.87,-61.476 -5.4,-59.84 20.66,-118.223 20.92,-118.813 l 0.36,-0.578 c 0.56,-0.691 57.24,-69.793 151.91,-69.793 53.94,0 84.55,7.301 114.15,14.352 21.87,5.211 42.52,10.14 70.85,11.289 26.09,1.09 54.4,-1.84 87.89,-5.258 35.9,-3.672 76.59,-7.832 123.69,-7.832 20.3,0 39.86,0.75 59.79,2.313 120.45,9.359 201.56,65.617 211.58,100.918 2.76,9.761 -0.42,21.558 -8.96,33.21 -22.66,30.899 -84.29,64.981 -189.41,68.258" /><path
         id="path106"
         style="fill:#1f1712;fill-opacity:1;fill-rule:nonzero;stroke:none"
         d="m 1657.51,387.281 c 0,0 25.91,1.617 51.54,14.289 21.91,10.828 45.92,26.27 60.7,46.578 l -4.36,3.172 c -30.97,-42.531 -107.11,-63.832 -107.88,-64.039" /><path
         id="path108"
         style="fill:#1f1712;fill-opacity:1;fill-rule:nonzero;stroke:none"
         d="m 1400.13,418.891 -3.55,-4.071 c 23.07,-20.039 54.59,-31.531 85.48,-36.859 52.46,-9.031 103.03,0.398 103.03,0.398 -1.24,-0.121 -125.21,-11.39 -184.96,40.532" /><path
         id="path110"
         style="fill:#1f1712;fill-opacity:1;fill-rule:nonzero;stroke:none"
         d="m 1876.46,328.379 c 0.72,0.43 72.84,43.59 127.3,44.973 l -0.13,5.398 c -26.43,-0.672 -56.25,-10.531 -80.67,-20.93 -27.21,-11.601 -46.5,-29.441 -46.5,-29.441" /><path
         id="path112"
         style="fill:#a15a20;fill-opacity:1;fill-rule:nonzero;stroke:none"
         d="m 1241.65,471.051 c -98.97,8.097 -128.42,52.988 -156.43,79.129 -27.62,25.769 -98.189,-75.09 -21.26,-142.571 -63.43,16.2 -139.011,-12.14 -188.944,-75.57 C 795.395,326.641 731.961,288.852 707.668,230.82 629.391,214.621 526.824,156.59 541.672,81.0195 551.117,37.8281 621.293,1.39063 704.973,2.73828 788.645,4.08984 816.984,17.582 915.508,55.3711 c 98.512,37.7891 192.992,32.3906 295.562,52.6409 102.56,20.238 168.08,44.527 187.28,95.82 19.2,51.277 1.65,120.109 -25.34,156.547 43.19,13.5 104.37,61.18 62.09,130.461 -15.3,14.398 -94.48,-27.891 -193.45,-19.789" /><path
         id="path114"
         style="fill:#b37b47;fill-opacity:1;fill-rule:nonzero;stroke:none"
         d="m 1435.1,490.84 c -7.26,6.832 -28.93,0.898 -60.25,-6.36 30.71,-41.789 -13.45,-93.91 -53.12,-118.699 70.18,-32.39 64.78,-113.371 53.98,-178.152 -1.26,-8.848 -4.05,-16.789 -7.93,-24.07 14.37,11.32 24.67,24.519 30.57,40.273 19.2,51.277 1.65,120.109 -25.34,156.547 43.19,13.5 104.37,61.18 62.09,130.461" /><path
         id="path116"
         style="fill:#76431b;fill-opacity:1;fill-rule:nonzero;stroke:none"
         d="M 1321.73,157.941 C 1181.37,120.148 1039.67,151.191 904.703,97.2109 823.734,64.8203 706.316,40.082 614.547,50.8711 559.066,59.4102 518.723,103.961 567.328,157.68 547.164,135.48 536.074,109.5 541.672,81.0195 551.117,37.8281 621.293,1.39063 704.973,2.73828 788.645,4.08984 816.984,17.582 915.508,55.3711 c 98.512,37.7891 192.992,32.3906 295.562,52.6409 102.56,20.238 168.08,44.527 187.28,95.82 4.39,11.719 6.78,24.379 7.66,37.34 -6.01,-71.082 -46.23,-75.621 -84.28,-83.231" /><path
         id="path118"
         style="fill:#1f1712;fill-opacity:1;fill-rule:nonzero;stroke:none"
         d="m 1442.45,422.398 c -11.81,-31.359 -45.22,-51.628 -70.24,-59.437 l -3.63,-1.133 2.27,-3.058 c 26.98,-36.418 43.7,-103.981 24.97,-153.989 -19.3,-51.582 -88.03,-74.929 -185.28,-94.133 C 1173.03,103.25 1136.2,99.25 1100.58,95.3594 1037.16,88.4688 977.246,81.9492 914.535,57.8906 L 893.082,49.6289 C 812.035,18.3711 781.715,6.67969 704.922,5.44141 703.434,5.41016 701.949,5.39844 700.465,5.39844 622.246,5.39844 553.652,38.8711 544.32,81.5391 529.801,155.43 633.535,212.73 708.211,228.18 l 1.394,0.281 0.555,1.309 c 23.84,56.96 85.539,94.191 165.035,99.57 l 1.203,0.09 0.743,0.941 c 38.953,49.481 95.214,79.02 150.509,79.02 12.24,0 24.23,-1.469 35.64,-4.391 l 10.92,-2.789 -8.47,7.437 c -46.53,40.813 -33.08,89.313 -27.85,103.204 8.31,22.089 24.21,38.75 36.98,38.75 3.23,0 6.09,-1.153 8.51,-3.391 3.83,-3.59 7.7,-7.531 11.81,-11.699 25.3,-25.793 59.97,-61.09 146.24,-68.153 8.51,-0.699 17.28,-1.05 26.07,-1.05 45.98,0 86.65,9.531 116.35,16.5 17.52,4.101 31.35,7.339 40.45,7.339 4.12,0 7.04,-0.687 8.7,-2.058 14.14,-23.328 17.32,-45.781 9.45,-66.692 z m -5.51,70.411 c -2.68,2.519 -6.81,3.742 -12.64,3.742 -9.73,0 -23.83,-3.301 -41.69,-7.492 -29.44,-6.899 -69.75,-16.348 -115.11,-16.348 -8.64,0 -17.26,0.34 -25.62,1.027 -84.28,6.891 -116.75,39.973 -142.84,66.551 -4.15,4.223 -8.06,8.199 -11.98,11.859 -3.45,3.223 -7.55,4.852 -12.19,4.852 -15.14,0 -32.82,-17.77 -42.04,-42.238 -13.67,-36.34 -5.31,-73.981 22.27,-102.442 -8.93,1.641 -18.12,2.469 -27.45,2.469 -56.58,0 -114.072,-29.93 -154.009,-80.141 C 793.234,328.871 730.645,291.031 705.734,233.172 626.844,216.422 523.719,158.379 539.031,80.4414 548.898,35.3398 619.809,0 700.465,0 c 1.512,0 3.027,0.0117188 4.547,0.0390625 C 782.762,1.28906 813.328,13.0781 895.023,44.6016 l 21.45,8.25 C 978.527,76.6602 1038.1,83.1406 1101.16,90 c 35.73,3.8906 72.69,7.9102 110.42,15.359 99.03,19.539 169.12,43.61 189.3,97.52 18.86,50.383 3.02,117.883 -23.53,156.09 25.71,8.929 58.22,29.812 70.15,61.531 8.53,22.66 5.13,46.801 -10.1,71.75 l -0.46,0.559" /><path
         id="path120"
         style="fill:#1f1712;fill-opacity:1;fill-rule:nonzero;stroke:none"
         d="m 707.188,233.469 0.96,-5.309 c 81.793,14.899 143.309,-39.281 143.922,-39.84 0,0 -60.441,60.512 -144.882,45.149" /><path
         id="path122"
         style="fill:#1f1712;fill-opacity:1;fill-rule:nonzero;stroke:none"
         d="m 875.035,329.34 c 0.449,0 0.887,0 1.328,0 53.434,0 101.696,-25.949 102.18,-26.219 0,0 -48.188,31.918 -103.551,31.617 l 0.043,-5.398" /><path
         id="path124"
         style="fill:#ac39a3;fill-opacity:1;fill-rule:nonzero;stroke:none"
         d="m 2761.29,2687.95 c -59.38,65.7 -71.98,107.09 -106.17,107.09 -34.19,0 -77.37,-68.38 -80.97,-116.97 -62.98,-43.19 -206.94,-177.47 -304.11,-229.09 -97.17,-51.62 -354.49,-179.38 -354.49,-179.38 l 223.13,-458.86 c 0,0 116.97,70.17 208.74,127.76 91.77,57.58 154.75,104.36 235.72,246.52 129.57,95.37 228.54,206.94 280.72,332.9 70.18,25.19 77.37,73.51 77.37,84.44 0,10.93 -120.56,19.89 -179.94,85.59" /><path
         id="path126"
         style="fill:#bf5cb5;fill-opacity:1;fill-rule:nonzero;stroke:none"
         d="m 2622.73,2643.88 c -32.39,37.79 0,86.38 32.39,97.17 37.89,14.21 59.17,-33.9 96.63,-42.27 -51.28,59.37 -64.36,96.26 -96.63,96.26 -34.19,0 -77.37,-68.38 -80.97,-116.97 -62.38,-42.77 -204.18,-174.87 -301.3,-227.55 118.84,10.13 196.65,109.77 301.3,182.57 10.79,10.79 32.39,16.19 48.58,10.79" /><path
         id="path128"
         style="fill:#8c3195;fill-opacity:1;fill-rule:nonzero;stroke:none"
         d="m 2174.67,2201.21 c 11.51,-13.98 11.51,-40.32 26.99,-53.98 76.51,120.11 85.26,198.32 104.85,323.41 -30.44,-22.48 -10.32,-7.77 -36.47,-21.66 -97.17,-51.62 -354.49,-179.38 -354.49,-179.38 l 115.16,-257.32 c 70.79,44.29 140.82,97.91 143.96,188.93" /><path
         id="path130"
         style="fill:#8c3195;fill-opacity:1;fill-rule:nonzero;stroke:none"
         d="m 2846.49,2634.05 c 0.37,-31.63 -7.61,-60.24 -40.21,-76.54 -21.6,-5.4 -43.19,0 -64.79,0 19.8,-98.07 -54.88,-186.25 -155.64,-216.83 -48.59,-205.14 -276.22,-350 -492.15,-301.41 1.93,-32.88 -6.57,-63.66 -21.95,-90.9 l 66.93,-137.63 c 0,0 116.97,70.17 208.74,127.76 91.77,57.58 154.75,104.36 235.72,246.52 129.57,95.37 228.54,206.94 280.72,332.9 70.18,25.19 77.37,73.51 77.37,84.44 0,6.73 -45.73,12.74 -94.74,31.69" /><path
         id="path132"
         style="fill:#411f43;fill-opacity:1;fill-rule:nonzero;stroke:none"
         d="m 2911.01,2616.73 c -40.32,10.81 -107.81,28.88 -147.72,73.03 -20.76,22.98 -35.89,43.12 -48.05,59.29 -22.82,30.36 -36.59,48.69 -60.12,48.69 -35.8,0 -79.24,-68.9 -83.56,-118.17 -22.47,-15.55 -54.48,-41.91 -91.44,-72.36 -66.4,-54.68 -149.02,-122.73 -211.35,-155.85 -96.02,-51.01 -351.85,-178.07 -354.42,-179.35 l 2.4,-4.83 c 2.57,1.27 258.47,128.37 354.56,179.42 62.8,33.37 145.66,101.61 212.23,156.44 37.46,30.85 69.81,57.49 92.13,72.81 l 1.07,0.73 0.1,1.29 c 3.43,46.24 45.25,114.47 78.28,114.47 20.84,0 33.26,-16.53 55.8,-46.54 12.22,-16.26 27.44,-36.5 48.37,-59.66 40.97,-45.33 109.43,-63.66 150.33,-74.62 13.51,-3.62 27.49,-7.36 28.92,-9.16 0,-2.23 -0.86,-55.07 -75.59,-81.9 l -1.12,-0.4 -0.46,-1.11 c -49.75,-120.08 -143.9,-231.7 -279.83,-331.76 l -0.74,-0.83 c -81.22,-142.59 -142.89,-187.9 -234.82,-245.58 -90.7,-56.91 -207.52,-127.03 -208.69,-127.73 l 2.78,-4.62 c 1.17,0.7 118.04,70.85 208.78,127.78 89.84,56.37 154.84,104.03 236.36,246.97 136.07,100.26 230.49,212.16 280.68,332.61 77.15,28.23 78.05,84.19 78.05,86.57 0,5.31 -7.91,7.68 -32.93,14.37" /><path
         id="path134"
         style="fill:#411f43;fill-opacity:1;fill-rule:nonzero;stroke:none"
         d="m 2580.83,2186.4 4.64,-2.76 c 9.42,15.9 15.17,37.43 18.66,56.3 4.09,22.19 -0.29,42.38 -0.29,42.38 -0.03,-0.62 -3.2,-62.49 -23.01,-95.92" /><path
         id="path136"
         style="fill:#411f43;fill-opacity:1;fill-rule:nonzero;stroke:none"
         d="m 2811.06,2524.77 c 0.88,-0.48 19.23,-10.26 42.39,-10.26 3.5,0 7.11,0.22 10.78,0.74 l -0.74,5.34 c -26.19,-3.66 -52.43,4.18 -52.43,4.18" /><path
         id="path138"
         style="fill:#ac39a3;fill-opacity:1;fill-rule:nonzero;stroke:none"
         d="m 2113.49,1407.66 c -7.2,138.56 79.17,403.08 -14.4,610.01 l -457.32,299.1 -758.567,-164.14 c 0,0 -65.48,-244.23 -41.558,-397.43 23.925,-153.2 64.41,-297.4 -2.872,-385.56 C 765,1307.41 672.129,1195.33 630.742,1096.36 628.941,1062.17 722.516,975.789 938.449,891.219 1154.38,806.641 1283.94,774.25 1318.13,788.648 c 35.99,17.993 176.35,325.702 196.14,345.492 7.2,-9 95.37,-323.902 193.44,-370.679 36.89,-5.402 78.28,35.988 182.65,55.777 104.37,19.801 255.52,21.59 385.08,208.732 1.8,21.6 -75.58,161.96 -127.76,232.14 -25.2,52.18 -30.9,84.25 -34.19,147.55" /><path
         id="path140"
         style="fill:#bf5cb5;fill-opacity:1;fill-rule:nonzero;stroke:none"
         d="m 2147.68,1260.11 c -25.2,52.18 -30.9,84.25 -34.19,147.55 -7.2,138.56 79.17,403.08 -14.4,610.01 l -4.05,2.65 c 36.44,-168.65 -2.55,-381.63 -39.13,-580.27 -5.4,-37.79 -10.8,-80.97 10.79,-113.37 77.52,-120.58 110.39,-244.6 156.14,-363.828 17.81,18.789 35.4,40.278 52.6,65.118 1.8,21.6 -75.58,161.96 -127.76,232.14" /><path
         id="path142"
         style="fill:#8c3195;fill-opacity:1;fill-rule:nonzero;stroke:none"
         d="m 1667.71,1242 c -42.15,4.74 -83.88,13.07 -124.65,25.3 -5.74,-42.12 -18.94,-87.64 -29.02,-133.42 0.07,0.08 0.16,0.19 0.23,0.26 7.2,-9 95.37,-323.902 193.44,-370.679 36.89,-5.402 78.28,35.988 182.65,55.777 22.91,4.344 48.08,7.84 74.78,12.614 C 1801.35,904.66 1675.96,1052.74 1667.71,1242" /><path
         id="path144"
         style="fill:#8c3195;fill-opacity:1;fill-rule:nonzero;stroke:none"
         d="m 2121.85,1332.21 c -90.86,-33.1 -182.4,-62.98 -276.48,-86.5 -172.75,-43.19 -340.1,-26.99 -518.24,10.8 -86.37,16.19 -172.75,32.39 -259.12,59.38 -71.467,22.57 -142.924,47.78 -212.565,81.07 -4.617,-9.61 -10.121,-18.74 -16.672,-27.32 -8.355,-7.05 -16.972,-14.81 -25.718,-23.05 244.365,-134.72 621.895,-189.69 783.995,-198.05 287.01,-14.81 508.62,92.74 550.63,111.57 -8.45,12.77 7.68,-10.34 0,0 -13.07,27.05 -20.86,48.71 -25.83,72.1" /><path
         id="path146"
         style="fill:#8c3195;fill-opacity:1;fill-rule:nonzero;stroke:none"
         d="m 1593.51,1645.76 c 0,-58.48 -36.07,-105.88 -80.56,-105.88 -44.49,0 -80.55,47.4 -80.55,105.88 0,58.48 36.06,105.89 80.55,105.89 44.49,0 80.56,-47.41 80.56,-105.89" /><path
         id="path148"
         style="fill:#8c3195;fill-opacity:1;fill-rule:nonzero;stroke:none"
         d="m 1208.36,1985.28 c -5.39,16.2 0,32.39 -10.79,43.19 107.96,-64.78 188.94,-167.35 242.93,-280.71 97.17,97.16 237.52,97.16 350.89,161.95 48.58,26.99 75.57,80.97 113.36,124.16 -16.19,-32.39 -10.79,-70.18 -21.59,-102.57 64.85,22.56 127.84,60.45 185.62,106.19 l -427.01,279.28 -623.69,-134.95 c 48.69,-77.86 116.72,-144.77 190.28,-196.54" /><path
         id="path150"
         style="fill:#8c3195;fill-opacity:1;fill-rule:nonzero;stroke:none"
         d="m 1024.82,1483.23 c 75.58,188.95 -5.4,404.88 5.4,610.02 -38.009,-125.51 -115.212,-251.59 -188.958,-335.44 0.133,-0.87 0.25,-1.75 0.383,-2.61 23.925,-153.2 64.41,-297.4 -2.872,-385.56 C 765,1307.41 672.129,1195.33 630.742,1096.36 629.008,1063.41 715.891,982 915.445,900.441 c -68.14,179.819 37.262,404.639 109.375,582.789" /><path
         id="path152"
         style="fill:#411f43;fill-opacity:1;fill-rule:nonzero;stroke:none"
         d="m 1528.66,1906.95 c 0.13,-5.8 12.28,-582.18 -17.06,-772.4 l 5.34,-0.82 c 29.41,190.68 17.24,767.53 17.12,773.34 l -5.4,-0.12" /><path
         id="path154"
         style="fill:#411f43;fill-opacity:1;fill-rule:nonzero;stroke:none"
         d="m 2116.18,1407.81 c -2.22,42.86 4.46,97.09 12.2,159.87 12.98,105.31 28.4,230.39 5.54,347.63 -6.91,35.47 -37.29,101.25 -37.29,101.25 64.15,-141.87 43.21,-311.73 26.39,-448.22 -7.77,-63.03 -14.48,-117.48 -12.22,-160.82 3.31,-63.85 9.01,-95.9 34.71,-149.03 51.16,-68.79 127.4,-206.55 127.27,-229.61 -113.38,-163.349 -241.07,-183.841 -343.71,-200.329 -13.76,-2.211 -26.76,-4.301 -39.22,-6.66 -54.78,-10.391 -92.97,-26.981 -120.85,-39.102 -25.35,-11.008 -43.7,-19 -60.5,-16.719 -78.9,38.219 -152.31,254.96 -179.97,336.63 -7.83,23.11 -10.61,31.21 -12.16,33.13 l -1.88,2.35 -2.13,-2.13 c -7.74,-7.74 -31.66,-54.78 -61.96,-114.32 -47.18,-92.781 -111.81,-219.832 -133.32,-230.601 -35.44,-14.91 -173.08,22.492 -377.65,102.601 -213.043,83.442 -306.926,168.11 -306.012,202.03 41.426,98.72 135.477,211.41 207.094,271.81 l 0.41,0.43 c 57.488,75.34 37.008,192.59 15.332,316.72 -4.039,23.1 -8.207,46.99 -11.938,70.9 -23.57,150.87 40.836,393.88 41.493,396.32 l -5.215,1.39 c -0.656,-2.45 -65.356,-246.54 -41.617,-398.55 3.742,-23.95 7.921,-47.86 11.957,-70.99 21.449,-122.81 41.714,-238.81 -14.125,-312.29 -69.973,-59.07 -165.008,-169.96 -208.563,-274.1 l -0.199,-0.9 c -1.856,-35.24 92.914,-123 309.418,-207.801 205.855,-80.621 344.985,-117.98 381.875,-102.469 23.26,11.641 85.7,134.399 135.88,233.05 26.11,51.34 49.01,96.34 58.43,109.78 2.07,-5.37 5.71,-16.12 9.77,-28.09 27.9,-82.39 102.03,-301.259 183.13,-339.95 l 0.77,-0.231 c 2.36,-0.348 4.74,-0.508 7.14,-0.508 16.27,0 33.71,7.571 56.69,17.559 27.65,12.019 65.52,28.469 119.7,38.75 12.39,2.351 25.35,4.43 39.08,6.629 103.78,16.66 232.93,37.402 347.73,203.221 l 0.41,0.59 0.06,0.72 c 1.99,23.85 -78.98,167.67 -128.02,233.53 -25.04,51.85 -30.65,83.47 -33.93,146.53" /><path
         id="path156"
         style="fill:#ac39a3;fill-opacity:1;fill-rule:nonzero;stroke:none"
         d="M 676.625,2227.58 C 544.367,2060.86 474.191,1974.49 440,1900.71 c -34.191,-73.78 -44.086,-281.61 -81.875,-341.9 -34.191,-12.59 -52.184,-41.38 -39.59,-80.07 9.899,-18.9 113.363,-77.38 187.145,-109.77 73.773,-32.39 107.07,-31.49 125.961,-8.1 18.894,23.39 7.195,61.18 7.195,70.18 19.797,47.69 108.867,147.56 128.66,251.92 44.988,39.59 210.539,188.95 257.324,404.88 l 71.53,139.73 -58.04,189.57 c 0,0 -183.537,36.54 -361.685,-189.57" /><path
         id="path158"
         style="fill:#bf5cb5;fill-opacity:1;fill-rule:nonzero;stroke:none"
         d="m 436.398,1553.19 c -2.699,102.34 17.61,243.64 80.239,385.08 38.347,86.6 281.453,398.36 414.906,470.83 C 862.629,2391.34 768.906,2344.71 676.625,2227.58 544.367,2060.86 474.191,1974.49 440,1900.71 c -34.191,-73.78 -44.086,-281.61 -81.875,-341.9 -34.191,-12.59 -52.184,-41.38 -39.59,-80.07 2.473,-4.72 10.785,-11.91 23.012,-20.55 -4.117,62.83 57.062,78.81 94.851,95" /><path
         id="path160"
         style="fill:#8c3195;fill-opacity:1;fill-rule:nonzero;stroke:none"
         d="m 744.105,1888.11 c 5.399,-140.35 -59.378,-275.31 -145.753,-383.28 -21.594,-21.6 -53.985,-10.79 -80.973,-10.79 48.586,-102.79 -18.441,-104.74 -49.774,-107.35 13.125,-6.41 25.997,-12.42 38.075,-17.72 73.773,-32.39 107.07,-31.49 125.961,-8.1 18.894,23.39 7.195,61.18 7.195,70.18 19.797,47.69 108.867,147.56 128.66,251.92 44.988,39.59 210.539,188.95 257.324,404.88 l 0.27,0.53 c -80.613,-82.69 -159.406,-210.4 -280.985,-200.27" /><path
         id="path162"
         style="fill:#8c3195;fill-opacity:1;fill-rule:nonzero;stroke:none"
         d="m 1038.31,2417.15 c 0,0 -37.17,7.39 -94.279,-5.07 3.649,-102.32 44.754,-196.05 105.589,-275.79 l 46.73,91.29 -58.04,189.57" /><path
         id="path164"
         style="fill:#411f43;fill-opacity:1;fill-rule:nonzero;stroke:none"
         d="m 674.512,2229.26 -23.785,-29.97 c -116.684,-146.97 -180.961,-227.93 -213.18,-297.45 -16.234,-35.04 -27.184,-100.86 -37.766,-164.52 -11.812,-71.01 -24.023,-144.42 -43.468,-176.3 -37.032,-14.05 -52.489,-45.82 -40.168,-83.54 10.168,-19.41 113.855,-78.23 188.453,-110.98 38.343,-16.84 66.89,-25.18 88.34,-25.18 18.152,0 31.214,5.99 40.804,17.86 15.848,19.63 11.289,48.32 8.836,63.73 -0.5,3.17 -0.945,5.95 -1.023,7.63 6.468,15.32 20.312,36.44 36.32,60.86 33.133,50.55 78.465,119.69 92.105,190.16 112.821,99.47 195.168,216.26 237.27,335.01 8.34,23.53 14.93,71.85 14.93,71.85 C 991.504,1946.81 900.418,1803.54 765.719,1685 l -0.699,-0.61 -0.172,-0.91 c -13.227,-69.72 -58.457,-138.73 -91.485,-189.12 -16.336,-24.93 -30.449,-46.45 -37.019,-62.27 l -0.203,-1.04 c 0,-2.02 0.484,-5.09 1.105,-8.98 2.32,-14.59 6.637,-41.74 -7.703,-59.5 -19.074,-23.61 -54.637,-21.05 -122.777,8.87 -73.137,32.11 -176.387,90.51 -185.664,108.14 -11.418,35.06 2.773,63.74 37.957,76.7 l 0.867,0.32 0.488,0.78 c 20.297,32.38 32.691,106.94 44.688,179.06 10.531,63.3 21.418,128.76 37.347,163.13 31.946,68.94 96.078,149.72 212.504,296.36 l 23.793,29.98 c 174.953,222.05 357.234,188.95 359.044,188.59 l 1.05,5.3 c -1.84,0.36 -187.203,34.26 -364.328,-190.54" /><path
         id="path166"
         style="fill:#411f43;fill-opacity:1;fill-rule:nonzero;stroke:none"
         d="m 759.008,1841.66 c 0.215,-0.99 20.922,-100.01 2.562,-172.83 l 5.231,-1.32 c 8.246,32.7 8.762,70.51 6.746,102.63 -2.547,40.59 -14.539,71.52 -14.539,71.52" /><path
         id="path168"
         style="fill:#411f43;fill-opacity:1;fill-rule:nonzero;stroke:none"
         d="m 349.711,1558.19 2.031,-5 c 26.672,10.85 62.305,5.71 62.668,5.66 0,0 -36.648,10.76 -64.699,-0.66" /><path
         id="path170"
         style="fill:#f7915a;fill-opacity:1;fill-rule:nonzero;stroke:none"
         d="m 1688.82,3360.06 c -304.11,21.6 -558.86,-216.17 -603.33,-277.23 0,0 -4.88,-116.37 -33.68,-258.77 -28.79,-142.39 -53.79,-499.81 498.45,-599.45 293.31,-52.18 511.04,89.97 581.22,206.94 70.18,116.96 57.58,372.48 66.58,514.64 -68.38,232.13 -205.13,392.28 -509.24,413.87" /><path
         id="path172"
         style="fill:#f9a674;fill-opacity:1;fill-rule:nonzero;stroke:none"
         d="m 1688.82,3360.06 c -199.41,14.16 -377.59,-83.19 -489.18,-169.12 16.96,-240.7 -124.88,-360.15 -93.85,-556.67 16.2,-102.57 188.88,-217.62 288.75,-234.72 161.95,-183.55 209.39,-67.45 355.49,-67.45 4.8,0 270.1,-27.59 376.58,187.54 27.63,128.38 -16.38,381.43 36.66,505.58 -68.38,232.14 -170.34,313.25 -474.45,334.84" /><path
         id="path174"
         style="fill:#fac09c;fill-opacity:1;fill-rule:nonzero;stroke:none"
         d="m 1688.82,3360.06 c -186.08,13.22 -353.64,-70.67 -465.9,-151.76 32.44,-182.07 -107.91,-348.01 -87.07,-530.23 19.19,-167.72 244.3,-252.39 255.1,-263.18 102.57,-75.58 211.49,-94.91 330.26,-78.71 21.59,5.39 8.69,-1.01 30.29,-1.01 109.29,21.15 210.48,49.32 317.28,123.7 13.6,14.38 37.33,59.4 47.5,77.3 27.63,128.37 -27.74,271.12 20.46,476.1 -68.39,232.13 -143.81,326.2 -447.92,347.79" /><path
         id="path176"
         style="fill:#c3c1c0;fill-opacity:1;fill-rule:nonzero;stroke:none"
         d="m 1448.91,3261.47 c -59.36,9.99 -125.2,-61.72 -152.82,-134.02 0,0 60.54,54.08 106.39,58.19 45.85,4.11 70.53,-12.34 75.24,-11.17 4.7,1.17 30.56,77 -28.81,87" /><path
         id="path178"
         style="fill:#f2f2f2;fill-opacity:1;fill-rule:nonzero;stroke:none"
         d="m 1448.91,3261.47 c -59.36,9.99 -103.43,-33.88 -131.06,-106.18 0,0 48.3,43.28 94.14,47.4 45.85,4.11 54.68,-8.94 59.38,-7.76 4.7,1.17 36.91,56.54 -22.46,66.54" /><path
         id="path180"
         style="fill:#525355;fill-opacity:1;fill-rule:nonzero;stroke:none"
         d="m 1437.6,3259.67 c -52.24,0 -107.8,-60.83 -134.76,-122.93 18.46,15.06 62.97,48.36 99.39,51.62 4.98,0.45 9.96,0.68 14.81,0.68 25.84,0 43.71,-6.38 53.31,-9.81 2.6,-0.93 5.07,-1.81 6.32,-2.03 3.11,4.43 12.47,31.57 5.41,54.15 -4.77,15.24 -16.08,24.46 -33.62,27.42 -3.54,0.59 -7.19,0.9 -10.86,0.9 z m -148.08,-141.77 4.01,10.52 c 25.32,66.28 84.42,136.72 144.07,136.72 3.97,0 7.93,-0.33 11.77,-0.98 32.27,-5.43 39.92,-28.98 40.66,-47.77 0.75,-19.13 -6.41,-43.26 -11.65,-44.57 l -1.22,-0.14 c -1.92,0 -4.45,0.9 -8.65,2.39 -9.29,3.32 -26.58,9.49 -51.47,9.49 -4.69,0 -9.5,-0.22 -14.32,-0.65 -44.43,-3.98 -104.21,-56.97 -104.81,-57.5 l -8.39,-7.51" /><path
         id="path182"
         style="fill:#c3c1c0;fill-opacity:1;fill-rule:nonzero;stroke:none"
         d="m 1914.34,3219.31 c -60.19,1.24 -48.9,-78.08 -44.5,-80.11 4.41,-2.03 31.73,9.54 76.01,-3.04 44.27,-12.58 93.69,-76.98 93.69,-76.98 -13.68,76.18 -65.01,158.89 -125.2,160.13" /><path
         id="path184"
         style="fill:#f2f2f2;fill-opacity:1;fill-rule:nonzero;stroke:none"
         d="m 1914.34,3219.31 c -60.19,1.24 -36.61,-59.76 -32.21,-61.79 4.41,-2.03 23.21,19.22 67.49,6.64 44.28,-12.58 75.96,-79.75 75.96,-79.75 -13.68,76.18 -51.05,133.66 -111.24,134.9" /><path
         id="path186"
         style="fill:#525355;fill-opacity:1;fill-rule:nonzero;stroke:none"
         d="m 1904.53,3144.86 c 13.76,0 27.91,-2.04 42.07,-6.06 35.18,-10 72.72,-51.01 88.05,-69.24 -16.17,71.8 -64.77,145.87 -120.36,147.01 l -1.34,0.02 c -17.28,0 -29.73,-7.11 -37.04,-21.13 -10.84,-20.82 -6.72,-48.89 -4.53,-53.77 1.72,0.05 3.88,0.39 6.58,0.81 5.97,0.94 15.01,2.36 26.57,2.36 z m 139.7,-96.28 -6.86,8.93 c -0.49,0.64 -49.38,63.83 -92.27,76.02 -13.67,3.89 -27.32,5.86 -40.57,5.86 -11.14,0 -19.92,-1.38 -25.72,-2.3 -5.37,-0.83 -8.24,-1.23 -10.11,-0.38 -4.87,2.25 -7.45,26.45 -3.32,45.21 4.03,18.31 15.56,40.14 47.57,40.14 l 1.44,-0.02 c 61.18,-1.25 113.99,-85.26 127.84,-162.38 l 2,-11.08" /><path
         id="path188"
         style="fill:#f7915a;fill-opacity:1;fill-rule:nonzero;stroke:none"
         d="m 1920.74,3036.61 c -58.43,0 -105.81,-67.9 -105.81,-151.66 0,-83.76 47.38,-151.66 105.81,-151.66 58.44,0 105.81,67.9 105.81,151.66 0,83.76 -47.37,151.66 -105.81,151.66" /><path
         id="path190"
         style="fill:#f7915a;fill-opacity:1;fill-rule:nonzero;stroke:none"
         d="m 1374.8,3126.25 c -57.78,8.75 -114.78,-51.29 -127.32,-134.11 -12.54,-82.82 24.12,-157.04 81.9,-165.8 57.78,-8.74 114.79,51.3 127.33,134.11 12.55,82.82 -24.13,157.05 -81.91,165.8" /><path
         id="path192"
         style="fill:#100f0d;fill-opacity:1;fill-rule:nonzero;stroke:none"
         d="m 2191.44,2838.2 c -3.55,-140.22 -7.96,-314.74 -62.27,-405.26 -62.64,-104.4 -231.78,-216.74 -455.16,-216.74 h -0.04 c -40.5,0 -81.96,3.72 -123.23,11.07 -210.23,37.93 -357.61,117.24 -438.04,235.72 -83.52,123.03 -77.77,263.97 -58.24,360.54 27.24,134.74 33.18,247.61 33.69,258.36 34.92,47.15 265.59,276.85 561.55,276.85 12.98,0 26.08,-0.45 38.93,-1.37 272.15,-19.33 428.44,-146.23 506.71,-411.48 -1.97,-31.35 -2.91,-68.44 -3.9,-107.69 z m -157.81,395.89 c -85.75,76.2 -198.48,118.29 -344.62,128.66 -12.98,0.93 -26.2,1.39 -39.31,1.39 -299.61,0 -532.87,-233.71 -566.39,-279.72 l -0.48,-0.66 -0.04,-0.81 c -0.04,-1.17 -5.2,-117.79 -33.63,-258.35 -19.72,-97.58 -25.5,-240.07 59.07,-364.64 81.28,-119.73 229.84,-199.81 441.56,-238.01 41.58,-7.39 83.36,-11.15 124.18,-11.15 0,0 0.02,0 0.04,0 225.46,0 396.4,113.71 459.79,219.36 55.04,91.74 59.47,267.05 63.04,407.9 0.99,39.4 1.93,76.61 3.92,107.96 l 0.03,0.47 -0.14,0.46 c -37.25,126.45 -91.88,220.38 -167.02,287.14" /><path
         id="path194"
         style="fill:#ffffff;fill-opacity:1;fill-rule:nonzero;stroke:none"
         d="m 1384.3,3090.68 c -52.15,12.67 -108.83,-36.41 -126.62,-109.63 -17.79,-73.22 10.06,-142.85 62.21,-155.52 52.14,-12.67 108.83,36.42 126.62,109.64 17.79,73.22 -10.06,142.85 -62.21,155.51" /><path
         id="path196"
         style="fill:#cdccca;fill-opacity:1;fill-rule:nonzero;stroke:none"
         d="m 1252.83,2950.24 c -4.51,-61.03 22.31,-113.84 67.06,-124.71 39.84,-9.68 82.33,16.73 108.1,62.39 -14.14,-10.25 -29.81,-18.31 -48.97,-21.96 -54.2,-6.01 -106.69,29.51 -126.19,84.28" /><path
         id="path198"
         style="fill:#58c9f4;fill-opacity:1;fill-rule:nonzero;stroke:none"
         d="m 1391.04,3008.39 c -30.66,5.22 -62.88,-25.57 -71.95,-68.77 -9.08,-43.21 8.42,-82.46 39.08,-87.67 30.65,-5.22 62.85,25.57 71.93,68.77 9.08,43.2 -8.41,82.46 -39.06,87.67" /><path
         id="path200"
         style="fill:#3965b9;fill-opacity:1;fill-rule:nonzero;stroke:none"
         d="m 1391.04,3008.39 c -30.66,5.22 -62.88,-25.57 -71.95,-68.77 -9.08,-43.21 101.93,-62.1 111.01,-18.9 9.08,43.2 -8.41,82.46 -39.06,87.67" /><path
         id="path202"
         style="fill:#171d3c;fill-opacity:1;fill-rule:nonzero;stroke:none"
         d="m 1426.94,2921.26 c -8.68,-41.33 -39.23,-70.97 -68.08,-66.06 -28.88,4.91 -45.31,42.54 -36.62,83.88 8.69,41.35 39.24,70.97 68.12,66.06 28.85,-4.91 45.28,-42.54 36.58,-83.88 z m -35.22,90.39 c -32.35,5.51 -66.35,-26.56 -75.78,-71.49 -9.44,-44.94 9.2,-85.97 41.54,-91.47 32.34,-5.5 66.33,26.56 75.78,71.5 9.43,44.93 -9.2,85.96 -41.54,91.46" /><path
         id="path204"
         style="fill:#141619;fill-opacity:1;fill-rule:nonzero;stroke:none"
         d="m 1382.6,2968.25 c -14.92,2.53 -30.61,-12.46 -35.02,-33.48 -4.42,-21.02 4.1,-40.13 19.02,-42.68 14.92,-2.53 30.6,12.46 35.01,33.48 4.42,21.03 -4.1,40.13 -19.01,42.68" /><path
         id="path206"
         style="fill:#ffffff;fill-opacity:1;fill-rule:nonzero;stroke:none"
         d="m 1373.8,2976 c -10.76,1.82 -21.2,-4.89 -23.33,-15.01 -2.12,-10.1 4.87,-19.79 15.63,-21.62 10.75,-1.83 21.2,4.89 23.32,15 2.12,10.11 -4.87,19.8 -15.62,21.63" /><path
         id="path208"
         style="fill:#ffffff;fill-opacity:1;fill-rule:nonzero;stroke:none"
         d="m 1351.25,2918.74 c -5.14,0.88 -10.14,-2.33 -11.16,-7.18 -1.02,-4.85 2.33,-9.47 7.48,-10.35 5.15,-0.87 10.14,2.34 11.16,7.18 1.02,4.85 -2.33,9.48 -7.48,10.35" /><path
         id="path210"
         style="fill:#100f0d;fill-opacity:1;fill-rule:nonzero;stroke:none"
         d="m 1443.93,2935.79 c -17.41,-71.66 -72.78,-119.97 -123.41,-107.67 -50.65,12.31 -77.67,80.62 -60.26,152.3 17.42,71.67 72.78,119.98 123.41,107.68 50.64,-12.3 77.67,-80.63 60.26,-152.31 z m -54.13,175.05 c -53.49,13 -116.6,-54.63 -134.71,-129.17 -18.11,-74.53 10.68,-145.73 64.17,-158.72 53.48,-13 111.74,37.06 129.84,111.59 18.11,74.53 -5.81,163.31 -59.3,176.3" /><path
         id="path212"
         style="fill:#ffffff;fill-opacity:1;fill-rule:nonzero;stroke:none"
         d="m 1937.45,2993.89 c -53.25,6.58 -103.91,-48.71 -113.14,-123.5 -9.23,-74.78 26.46,-140.73 79.72,-147.3 53.26,-6.57 103.92,48.71 113.15,123.5 9.23,74.79 -26.47,140.73 -79.73,147.3" /><path
         id="path214"
         style="fill:#cdccca;fill-opacity:1;fill-rule:nonzero;stroke:none"
         d="m 1823.05,2839.24 c 2.55,-61.15 35.28,-110.51 80.98,-116.15 40.7,-5.02 79.86,26.11 100.19,74.43 -12.86,-11.81 -27.5,-21.63 -46.11,-27.46 -53.14,-12.22 -109.38,17.02 -135.06,69.18" /><path
         id="path216"
         style="fill:#58c9f4;fill-opacity:1;fill-rule:nonzero;stroke:none"
         d="m 1904.39,2913.33 c -31.05,1.65 -59.51,-32.65 -63.54,-76.61 -4.04,-43.96 17.87,-80.94 48.93,-82.59 31.04,-1.64 59.47,32.65 63.52,76.62 4.03,43.95 -17.86,80.93 -48.91,82.58" /><path
         id="path218"
         style="fill:#3965b9;fill-opacity:1;fill-rule:nonzero;stroke:none"
         d="m 1904.39,2913.33 c -31.05,1.65 -59.51,-32.65 -63.54,-76.61 -4.04,-43.96 108.4,-49.94 112.45,-5.97 4.03,43.95 -17.86,80.93 -48.91,82.58" /><path
         id="path220"
         style="fill:#171d3c;fill-opacity:1;fill-rule:nonzero;stroke:none"
         d="m 1950.1,2830.92 c -3.86,-42.06 -30.79,-75.03 -60.02,-73.47 -29.25,1.55 -49.9,37.03 -46.04,79.1 3.86,42.07 30.8,75.02 60.05,73.47 29.23,-1.55 49.88,-37.04 46.01,-79.1 z m -45.41,85.73 c -32.77,1.74 -62.84,-34.04 -67.04,-79.76 -4.2,-45.72 19.06,-84.33 51.82,-86.07 32.75,-1.73 62.82,34.04 67.02,79.76 4.19,45.72 -19.04,84.33 -51.8,86.07" /><path
         id="path222"
         style="fill:#141619;fill-opacity:1;fill-rule:nonzero;stroke:none"
         d="m 1900.64,2872.48 c -15.12,0.8 -28.97,-15.89 -30.93,-37.3 -1.97,-21.38 8.7,-39.39 23.81,-40.19 15.11,-0.8 28.95,15.9 30.92,37.29 1.96,21.4 -8.7,39.39 -23.8,40.2" /><path
         id="path224"
         style="fill:#ffffff;fill-opacity:1;fill-rule:nonzero;stroke:none"
         d="m 1891,2879.16 c -10.9,0.58 -20.5,-7.3 -21.44,-17.59 -0.94,-10.28 7.11,-19.1 18.02,-19.68 10.89,-0.58 20.48,7.3 21.43,17.59 0.94,10.29 -7.12,19.1 -18.01,19.68" /><path
         id="path226"
         style="fill:#ffffff;fill-opacity:1;fill-rule:nonzero;stroke:none"
         d="m 1875.2,2819.69 c -5.21,0.28 -9.81,-3.49 -10.26,-8.42 -0.45,-4.93 3.41,-9.13 8.62,-9.42 5.22,-0.28 9.81,3.49 10.26,8.42 0.46,4.94 -3.4,9.14 -8.62,9.42" /><path
         id="path228"
         style="fill:#100f0d;fill-opacity:1;fill-rule:nonzero;stroke:none"
         d="m 2014.54,2846.91 c -9.04,-73.2 -58.47,-127.56 -110.18,-121.18 -51.72,6.38 -86.44,71.14 -77.41,144.34 9.04,73.2 58.46,127.57 110.18,121.19 51.71,-6.39 86.44,-71.14 77.41,-144.35 z m -77.06,169.76 c -54.63,6.74 -106.42,-69.83 -115.81,-145.95 -9.4,-76.12 27.41,-143.53 82.04,-150.27 54.63,-6.75 106.72,49.69 116.11,125.82 9.4,76.11 -27.71,163.66 -82.34,170.4" /><path
         id="path230"
         style="fill:#65b331;fill-opacity:1;fill-rule:nonzero;stroke:none"
         d="m 1577.79,3660.82 c -326.42,-37.14 -446.65,-386.27 -446.65,-386.27 565.19,414.74 888.03,106.23 974.83,56.17 -68.06,200.67 -254.33,361.25 -528.18,330.1" /><path
         id="path232"
         style="fill:#a2d552;fill-opacity:1;fill-rule:nonzero;stroke:none"
         d="m 2092.58,3365.98 c -77.12,183.79 -257.19,324.14 -514.79,294.84 -71.42,-8.13 -132.98,-31.19 -185.56,-62.27 314.34,85 565.46,4.84 700.35,-232.57" /><path
         id="path234"
         style="fill:#4b8430;fill-opacity:1;fill-rule:nonzero;stroke:none"
         d="m 1131.14,3274.55 c 61.57,45.18 120.25,81.76 176.07,111.04 -1.32,79.42 38.59,150.76 89.22,215.36 -190.81,-110.22 -265.29,-326.4 -265.29,-326.4" /><path
         id="path236"
         style="fill:#2c3d1a;fill-opacity:1;fill-rule:nonzero;stroke:none"
         d="m 2075.2,3354.17 c -69.59,47.71 -199.12,136.54 -393.13,136.54 -170.95,0 -354.34,-70.18 -545.19,-208.63 21.06,53.32 148.46,342.75 441.22,376.06 22.55,2.56 45.03,3.86 66.86,3.86 251.23,0 399.61,-166.59 456,-325.09 -7.32,4.61 -16.04,10.58 -25.76,17.26 z m -430.24,313.23 c -22.02,0 -44.73,-1.31 -67.47,-3.9 -169.56,-19.29 -282.6,-123.81 -347.57,-208.09 -70.31,-91.22 -101.03,-179.1 -101.33,-179.98 l -2.81,-8.16 6.96,5.1 c 192.54,141.3 377.37,212.94 549.33,212.94 192.34,0 320.97,-88.2 390.07,-135.6 13.34,-9.15 23.89,-16.37 32.47,-21.33 l 6.21,-3.58 -2.3,6.79 c -55.05,162.34 -205.74,335.81 -463.56,335.81" /><path
         id="path238"
         style="fill:#fac09c;fill-opacity:1;fill-rule:nonzero;stroke:none"
         d="m 1202.97,2846.32 190.29,-56.68 c -78.28,107.97 -190.29,56.68 -190.29,56.68" /><path
         id="path240"
         style="fill:#d94f3b;fill-opacity:1;fill-rule:nonzero;stroke:none"
         d="m 1235.22,2858.23 c -20.03,-3.53 -31.13,-14.36 -31.13,-14.36 1.1,0.5 109.74,50.72 185.82,-54.23 l 4.18,3.43 c -52.38,72.24 -118.97,72.19 -158.87,65.16" /><path
         id="path242"
         style="fill:#fac09c;fill-opacity:1;fill-rule:nonzero;stroke:none"
         d="m 1832.46,2722.38 205.45,-44.31 c -70.18,88.18 -205.45,44.31 -205.45,44.31" /><path
         id="path244"
         style="fill:#d94f3b;fill-opacity:1;fill-rule:nonzero;stroke:none"
         d="m 2006.41,2710.14 c -47.23,30.65 -106.35,27.74 -142.23,22.03 -19.45,-3.09 -30.89,-12.36 -30.89,-12.36 1.34,0.44 134.34,42.24 202.51,-43.42 0,0 -8.91,20.47 -29.39,33.75" /><path
         id="path246"
         style="fill:#dbdad8;fill-opacity:1;fill-rule:nonzero;stroke:none"
         d="m 2166.57,3010.97 c -14.84,-52.63 -25.64,-130.91 -17.55,-234.83 8.1,-103.92 28.35,-192.99 -56.67,-327.16 -85.03,-134.17 -380.51,-157.21 -380.51,-157.21 0,0 -141.79,-12.28 -298.23,45.2 -391.27,162.75 -359.1,342 -315.91,510.86 43.18,168.86 21.59,263.01 21.59,263.01 0,0 -85.02,-64.79 -117.41,-121.46 -32.392,-56.68 -76.931,-132.26 -109.321,-267 -32.387,-134.73 29.695,-282.29 29.695,-282.29 l 21.59,98.78 c 0,0 4.047,-143.31 39.136,-243.27 35.09,-99.96 187.59,-217.19 187.59,-217.19 0,0 -8.09,70.17 0,97.17 21.6,-102.57 86.38,-163.3 139.01,-205.14 52.64,-41.84 87.73,-82.33 144.72,-179.5 46.2,41.39 164.34,102.57 292.1,149.36 127.76,46.78 188.79,138.55 188.79,138.55 0,0 -17.84,-62.98 -14.45,-97.17 244.53,115.17 237.74,296.91 237.74,296.91 0,0 16.19,-80.97 41.38,-73.77 116.97,158.35 105.72,267.66 101.67,435.01 4.05,221.33 -67.48,298.26 -134.96,371.14" /><path
         id="path248"
         style="fill:#f2f2f2;fill-opacity:1;fill-rule:nonzero;stroke:none"
         d="m 1174.59,2421.82 c 0,0 -1.54,-170.07 42.01,-251.82 43.54,-81.76 278.28,-236.56 252.98,-301.99 35,3.33 136.96,73.41 162.73,113.45 -9.27,-30.03 -42.56,-74.39 -42.56,-74.39 0,0 104.94,64.22 200.92,125.2 95.98,60.98 178.56,298.59 178.56,298.59 0,0 -99.75,-94.13 -191.03,-90.5 -197.16,7.82 -254.07,-68.7 -254.07,-68.7 0,0 -167.35,178.03 -349.54,250.16" /><path
         id="path250"
         style="fill:#b8b7b6;fill-opacity:1;fill-rule:nonzero;stroke:none"
         d="m 2281.76,2823.9 c 35.07,-234.9 0.18,-454.38 -101.69,-536.31 -6.75,26.99 -31.47,54.59 -43.19,64.78 -21.59,-76.93 -70.18,-205.14 -151.16,-280.71 -6.72,38.82 -2.69,72.88 -29.69,105.26 -66.75,-195.46 -404.74,-295.35 -496.86,-352.29 0,0 -68.22,131.8 -132.73,176.85 -128.34,89.61 -139.87,218.39 -156.06,239.98 -21.57,-34.76 -21.57,-98.77 -21.57,-131.17 -123.71,76.93 -238.201,311.53 -172.572,533.59 -17.097,-27.53 -48.261,-130.64 -69.851,-146.83 -32.485,310.24 37.457,308.78 80.644,411.35 12.547,29.28 28.259,65.05 27.199,99.76 -4.62,-6.3 -8.81,-12.59 -12.35,-18.78 -32.392,-56.68 -76.931,-132.26 -109.321,-267 -32.387,-134.73 29.695,-282.29 29.695,-282.29 l 21.59,98.78 c 0,0 4.047,-143.31 39.136,-243.27 35.09,-99.96 187.59,-217.19 187.59,-217.19 0,0 -8.09,70.17 0,97.17 21.6,-102.57 86.38,-163.3 139.01,-205.14 52.64,-41.84 87.73,-82.33 144.72,-179.5 46.2,41.39 164.34,102.57 292.1,149.36 127.76,46.78 188.79,138.55 188.79,138.55 0,0 -17.84,-62.98 -14.45,-97.17 244.53,115.17 237.74,296.91 237.74,296.91 0,0 16.19,-80.97 41.38,-73.77 116.97,158.35 105.72,267.66 101.67,435.01 1.4,76.8 -6.3,136.18 -19.77,184.07" /><path
         id="path252"
         style="fill:#525355;fill-opacity:1;fill-rule:nonzero;stroke:none"
         d="m 2198.28,2207.21 c -0.53,-0.1 -1.05,-0.15 -1.58,-0.15 -17.35,0.01 -31.57,52.02 -35.58,72.06 l -5.35,-0.63 c 0.07,-1.79 3.92,-179.5 -232.63,-292.68 -1.73,34.01 14.47,91.71 14.65,92.31 l 4.69,16.57 -9.54,-14.34 c -0.61,-0.91 -61.99,-91.57 -187.47,-137.52 -123.03,-45.05 -241.53,-105.38 -290.5,-147.7 -59.1,100.35 -94.9,138.63 -143.71,177.42 -56.53,44.93 -117.13,104.26 -138.04,203.58 l -2.19,10.37 -3.04,-10.15 c -6.8,-22.67 -2.57,-73.77 -0.77,-91.85 -26.57,21.25 -150.84,124.11 -181.693,211.99 -34.543,98.41 -38.941,241.03 -38.98,242.45 l -0.625,22.05 -24.395,-111.57 c -12.23,32.9 -53.828,158.01 -26.343,272.33 31.39,130.57 74.668,206.22 106.266,261.45 l 2.77,4.84 c 28.05,49.08 96.99,105.12 113.24,117.95 3.43,-20.15 15.07,-111.06 -22.38,-257.49 -22.53,-88.11 -39.86,-174.25 -4.84,-259.42 40.22,-97.83 145.66,-181.12 322.44,-254.64 156.72,-57.58 299.01,-45.39 299.36,-45.36 2.97,0.23 297.82,24.69 382.58,158.46 76.17,120.19 68.34,205.12 60.05,295.03 -1.03,11.14 -2.06,22.37 -2.95,33.79 -8.39,107.64 3.82,183.44 16.16,229.22 66.89,-72.28 134.92,-149.02 130.95,-365.82 0.26,-10.63 0.54,-21.04 0.83,-31.23 4.06,-147.53 7,-254.19 -101.38,-401.32 z m 105.95,432.57 c 4.06,222.11 -66.83,298.67 -135.67,373.02 l -3.28,3.54 -1.31,-4.64 c -12.87,-45.63 -26.38,-123.58 -17.63,-235.77 0.89,-11.43 1.93,-22.7 2.96,-33.85 8.2,-88.97 15.95,-173.01 -59.23,-291.65 -83.33,-131.49 -375.51,-155.74 -378.47,-155.97 -0.43,-0.04 -141.73,-12.02 -296.95,45 -401.48,166.99 -353.16,355.91 -314.34,507.7 42.86,167.55 21.83,263.33 21.61,264.29 l -0.94,4.07 -3.33,-2.53 c -0.85,-0.65 -85.83,-65.77 -118.119,-122.27 l -2.761,-4.83 c -31.766,-55.53 -75.262,-131.56 -106.832,-262.88 -32.227,-134.05 29.199,-282.48 29.824,-283.96 l 3.308,-7.85 19.067,87.2 c 2.574,-43.31 11.308,-146.79 38.301,-223.69 34.952,-99.57 186.962,-217.26 188.492,-218.44 l 5.06,-3.89 -0.73,6.34 c -0.07,0.6 -6.01,52.89 -2.44,83.77 23.54,-93.5 82.21,-150.54 137.08,-194.16 48.75,-38.74 84.4,-77.03 144.07,-178.75 l 1.68,-2.85 2.45,2.2 c 46.89,42.02 166.65,103.21 291.23,148.83 100.84,36.93 160.94,102.55 181.78,128.55 -5.05,-20.48 -13.54,-59.86 -11.05,-84.89 l 0.37,-3.8 3.46,1.62 c 198.07,93.29 232.28,231.91 238.11,281.24 6.14,-22.81 18.68,-58.81 36.7,-58.82 v 0 c 1.29,0 2.61,0.19 3.91,0.56 l 0.88,0.25 0.55,0.74 c 110.07,149.04 107.11,256.6 103.01,405.46 -0.28,10.19 -0.56,20.59 -0.82,31.11" /><path
         id="path254"
         style="fill:#65b331;fill-opacity:1;fill-rule:nonzero;stroke:none"
         d="m 2159.63,3259.45 c -86.6,129.58 -235.12,280.56 -550,271.56 -314.89,-9 -572.21,-352.83 -640.595,-458.86 -68.379,-106.02 -84.699,-206.44 -49.547,-257.07 0,0 143.122,212.09 319.472,347.04 176.34,134.96 272.14,181.75 498.66,158.35 226.51,-23.39 356.08,-230.33 444.25,-376.08 88.17,-145.76 119.8,-310.12 119.8,-310.12 0,0 65.43,76.85 43.94,224.22 -16.19,111.09 -77.37,238.47 -185.98,400.96" /><path
         id="path256"
         style="fill:#a2d552;fill-opacity:1;fill-rule:nonzero;stroke:none"
         d="m 1897.07,3437.75 c 249.1,-117.5 452.85,-518.86 451.97,-662.53 1.73,24.64 1.08,52.39 -3.43,83.27 -16.19,111.09 -77.37,238.47 -185.98,400.96 -86.6,129.58 -235.12,280.56 -550,271.56 -141.73,-4.05 -271.78,-75.94 -378.21,-163.44 234.02,163.82 514.5,145.76 665.65,70.18" /><path
         id="path258"
         style="fill:#4b8430;fill-opacity:1;fill-rule:nonzero;stroke:none"
         d="m 1239.66,3374.29 c -134.27,-108.11 -232.23,-242.61 -270.625,-302.14 -68.379,-106.02 -84.699,-206.44 -49.547,-257.07 0,0 143.122,212.09 319.472,347.04 0.26,0.21 0.52,0.4 0.79,0.61 -97.96,17.18 -40.76,163.8 -0.09,211.56" /><path
         id="path260"
         style="fill:#2c3d1a;fill-opacity:1;fill-rule:nonzero;stroke:none"
         d="m 2303.09,2640.66 c -6.63,30.73 -40.83,176.05 -118.92,305.13 -79.95,132.16 -213.75,353.35 -446.27,377.37 -37.68,3.89 -70.93,5.78 -101.68,5.78 -157.2,0 -250.11,-50.8 -398.9,-164.67 -162.65,-124.48 -298.668,-316.75 -317.785,-344.36 -32.394,52.04 -11.953,151.97 51.77,250.78 29.555,45.81 298.505,447.91 638.395,457.62 8.88,0.26 17.81,0.39 26.52,0.39 304.95,0 443.49,-154.52 521.17,-270.75 112.58,-168.43 169.8,-291.75 185.55,-399.85 18.14,-124.4 -26.71,-198.8 -39.85,-217.44 z m -141.21,620.29 c -78.37,117.26 -218.13,273.14 -525.66,273.14 -8.77,0 -17.74,-0.13 -26.67,-0.38 -342.65,-9.79 -613.077,-414.03 -642.784,-460.09 -67.297,-104.37 -86.727,-206.45 -49.493,-260.08 l 2.247,-3.24 2.207,3.27 c 1.429,2.12 144.883,213.26 318.873,346.41 150.72,115.34 238.99,163.56 395.62,163.56 30.56,0 63.64,-1.88 101.12,-5.75 229.85,-23.74 362.78,-243.49 442.21,-374.8 86.91,-143.65 119.16,-307.6 119.47,-309.24 l 1.07,-5.52 3.64,4.28 c 0.66,0.78 65.97,79.49 44.56,226.38 -15.88,108.93 -73.37,232.93 -186.41,402.06" /><path
         id="path262"
         style="fill:#551e18;fill-opacity:1;fill-rule:nonzero;stroke:none"
         d="m 2113.49,1407.66 c -136.76,-38.02 -448.96,-26.99 -849.79,21.59 -225.39,27 -388.009,78.24 -388.009,78.24 0,0 -53.636,-115.32 -43.578,-143.56 0,0 297.657,-147.91 687.847,-180.3 390.19,-32.39 627.72,76.48 627.72,76.48 0,0 9,137.65 -34.19,147.55" /><path
         id="path264"
         style="fill:#76423a;fill-opacity:1;fill-rule:nonzero;stroke:none"
         d="m 2113.49,1407.66 c -17.82,-4.95 -38.68,-9.05 -62.26,-12.37 -0.9,-24.44 2.12,-48.59 15.47,-68.61 17.14,-26.66 32.06,-53.49 45.46,-80.4 23.33,8.25 35.52,13.83 35.52,13.83 0,0 9,137.65 -34.19,147.55" /><path
         id="path266"
         style="fill:#321914;fill-opacity:1;fill-rule:nonzero;stroke:none"
         d="m 875.691,1507.49 c 0,0 -53.636,-115.32 -43.578,-143.56 0,0 44.946,-22.33 122.77,-51.53 11.969,56.69 30.933,110.22 62.007,158.87 -87.843,19.42 -141.199,36.22 -141.199,36.22" /><path
         id="path268"
         style="fill:#100f0d;fill-opacity:1;fill-rule:nonzero;stroke:none"
         d="m 2145.08,1261.91 c -17.88,-7.76 -195.75,-81.6 -481.4,-81.6 -47.19,0 -95.46,2.02 -143.49,6.01 -373.86,31.03 -666.28,170.04 -685.85,179.52 -6.246,22.51 24.547,98.76 42.808,138.38 20.536,-6.25 177.432,-52.64 386.222,-77.64 243.29,-29.5 445.78,-44.45 601.82,-44.45 110.08,0.01 193.63,7.66 248.34,22.74 37.34,-9.9 32.36,-127.66 31.55,-142.96 z m -30.99,148.38 -0.67,0.15 -0.65,-0.18 c -54.23,-15.08 -137.53,-22.72 -247.58,-22.73 -155.83,0 -358.09,14.94 -601.17,44.4 -222.52,26.65 -385.891,77.62 -387.516,78.13 l -2.258,0.72 -1.004,-2.15 c -2.211,-4.75 -53.976,-116.66 -43.668,-145.61 l 0.367,-1.03 0.973,-0.49 c 2.984,-1.47 302.586,-148.5 688.826,-180.56 48.18,-4 96.61,-6.03 143.94,-6.03 0.02,0 0.02,0 0.02,0 301.12,0 483.3,81.92 485.1,82.74 l 1.46,0.68 0.11,1.6 c 0.37,5.72 8.63,140.07 -36.28,150.36" /><path
         id="path270"
         style="fill:#f6f010;fill-opacity:1;fill-rule:nonzero;stroke:none"
         d="m 1652.71,1237.42 c -1.63,-34.73 -31.11,-61.55 -65.84,-59.92 l -141.39,6.66 c -34.73,1.63 -61.55,31.11 -59.92,65.84 l 4.92,104.53 c 1.64,34.73 31.12,61.56 65.85,59.92 l 141.38,-6.66 c 34.73,-1.63 61.56,-31.11 59.92,-65.84 z m -8.21,235.36 -224.94,12.8 c -55.26,3.15 -102.6,-39.09 -105.74,-94.35 l -9.48,-166.31 c -3.14,-55.25 39.1,-102.59 94.36,-105.74 l 224.94,-12.81 c 55.25,-3.15 102.6,39.09 105.74,94.35 l 9.47,166.31 c 3.15,55.25 -39.1,102.6 -94.35,105.75" /><path
         id="path272"
         style="fill:#e4ab11;fill-opacity:1;fill-rule:nonzero;stroke:none"
         d="m 1445.48,1184.16 c -34.73,1.63 -61.55,31.11 -59.92,65.84 l 1.99,42.3 c -21.74,55.46 -28.17,118.87 -24,179.86 -28.11,-16.36 -47.75,-46.03 -49.73,-80.93 l -9.48,-166.31 c -3.14,-55.25 39.1,-102.59 94.36,-105.74 l 224.94,-12.81 c 10.58,-0.6 20.85,0.49 30.6,2.98 -67.87,7.32 -132.12,26.79 -187.72,73.81 l -21.04,1" /><path
         id="path274"
         style="fill:#b2611d;fill-opacity:1;fill-rule:nonzero;stroke:none"
         d="m 1736.16,1367.19 -9.48,-166.32 c -3.03,-53.44 -48.81,-94.81 -102.89,-91.81 l -224.95,12.81 c -26,1.49 -49.87,13 -67.21,32.44 -17.33,19.43 -26.07,44.45 -24.6,70.46 l 9.48,166.31 c 2.94,51.57 45.66,91.97 97.26,91.97 1.87,0 3.75,-0.06 5.64,-0.16 l 224.94,-12.81 c 26,-1.48 49.87,-13 67.21,-32.44 17.35,-19.43 26.08,-44.45 24.6,-70.45 z m -91.5,108.28 -224.95,12.8 c -57.01,3.29 -105.38,-40.49 -108.59,-96.88 l -9.47,-166.31 c -1.56,-27.45 7.65,-53.85 25.96,-74.37 18.3,-20.5 43.49,-32.66 70.93,-34.23 l 224.95,-12.8 c 1.98,-0.12 3.97,-0.17 5.93,-0.17 h 0.01 c 54.46,0 99.55,42.63 102.64,97.06 l 9.48,166.31 c 1.56,27.44 -7.66,53.85 -25.95,74.36 -18.31,20.51 -43.5,32.67 -70.94,34.23" /><path
         id="path276"
         style="fill:#b2611d;fill-opacity:1;fill-rule:nonzero;stroke:none"
         d="m 1650.02,1237.55 c -1.57,-33.16 -29.59,-58.77 -63.03,-57.36 l -141.38,6.66 c -33.19,1.57 -58.92,29.83 -57.35,63.03 l 4.92,104.53 c 1.52,32.19 27.93,57.41 60.14,57.41 0.96,0 1.92,-0.02 2.88,-0.06 l 141.39,-6.66 c 33.18,-1.56 58.91,-29.83 57.35,-63.02 z m -52.18,172.94 -141.39,6.66 c -36.37,1.77 -66.96,-26.36 -68.66,-62.49 l -4.92,-104.53 c -1.71,-36.16 26.33,-66.97 62.49,-68.67 l 141.38,-6.66 c 1.05,-0.05 2.1,-0.07 3.14,-0.07 35.09,0 63.87,27.48 65.52,62.57 l 4.93,104.52 c 1.7,36.17 -26.33,66.97 -62.49,68.67" /><path
         id="path278"
         style="fill:#f9ac0c;fill-opacity:1;fill-rule:nonzero;stroke:none"
         d="m 1531.05,1751.61 c -43.8,1.47 -80.73,-40.35 -82.51,-93.42 -1.78,-53.06 32.27,-97.27 76.06,-98.73 43.78,-1.48 80.72,40.34 82.5,93.41 1.78,53.07 -32.27,97.28 -76.05,98.74" /><path
         id="path280"
         style="fill:#ee7d15;fill-opacity:1;fill-rule:nonzero;stroke:none"
         d="m 1504.62,1747 c -31.31,-12.1 -54.68,-46.9 -56.08,-88.81 -1.78,-53.06 32.27,-97.27 76.06,-98.73 21.46,-0.73 41.26,9 56.1,25.33 -63.49,-37.64 -150.88,74.03 -76.08,162.21" /><path
         id="path282"
         style="fill:#b04e1e;fill-opacity:1;fill-rule:nonzero;stroke:none"
         d="m 1524.71,1562.98 c -42.11,1.41 -74.97,44.08 -73.26,95.12 1.71,51.03 37.36,91.39 79.47,89.98 42.12,-1.41 74.98,-44.08 73.27,-95.11 -1.72,-51.03 -37.37,-91.4 -79.48,-89.99 z m 6.45,192.16 c -45.33,1.52 -83.69,-41.93 -85.53,-96.84 -1.85,-54.94 33.52,-100.86 78.85,-102.38 45.32,-1.52 83.69,41.93 85.54,96.86 1.84,54.92 -33.54,100.84 -78.86,102.36" /><path
         id="path284"
         style="fill:#fbcf4c;fill-opacity:1;fill-rule:nonzero;stroke:none"
         d="m 1547.34,1724.51 c -14.62,-8.72 -17.8,-37.58 -7.1,-64.47 10.71,-26.88 31.24,-41.61 45.87,-32.89 14.62,8.72 17.8,37.58 7.09,64.47 -10.7,26.89 -31.23,41.61 -45.86,32.89" /><path
         id="path286"
         style="fill:#f7915a;fill-opacity:1;fill-rule:nonzero;stroke:none"
         d="m 1539.01,2229.56 c 116.07,-18.89 214.59,103.92 214.59,103.92 l -362.65,81.41 c 0,0 32,-166.44 148.06,-185.33" /><path
         id="path288"
         style="fill:#f9a674;fill-opacity:1;fill-rule:nonzero;stroke:none"
         d="m 1753.5,2333.36 c 0.02,0.02 0.1,0.12 0.1,0.12 l -363,83.2 c 94.43,-203.18 235.23,-191.77 362.9,-83.32" /><path
         id="path290"
         style="fill:#fac09c;fill-opacity:1;fill-rule:nonzero;stroke:none"
         d="m 1453.09,2342.48 c 73.22,-103.49 208.1,-74.49 299.47,-8.77 l -361.96,82.97 c 14.24,-17.13 43.15,-46.86 62.49,-74.2" /><path
         id="path292"
         style="fill:#d94f3b;fill-opacity:1;fill-rule:nonzero;stroke:none"
         d="m 1539.45,2232.22 c -77.87,12.68 -116.48,95.38 -133.03,145.95 -7.43,22.7 -15.82,38.51 -15.82,38.51 0.3,-1.71 31.37,-170.8 147.98,-189.78 8.33,-1.36 16.58,-1.99 24.71,-1.99 67.85,0 127.71,43.84 162,75.37 18.95,17.43 26.21,34.89 26.21,34.89 -0.98,-1.23 -98.91,-121.41 -212.05,-102.95" /><path
         id="path294"
         style="fill:#9b1a20;fill-opacity:1;fill-rule:nonzero;stroke:none"
         d="m 1328.03,2602.36 c 0,0 89.97,-93.44 121.01,-147.42 31.04,-53.99 52.64,-140.36 108.42,-156.55 55.78,-16.2 111.11,41.83 150.25,79.62 39.14,37.79 100.67,129.06 144.81,149.56 -130.88,-56.43 -295.96,-68.58 -524.49,74.79" /><path
         id="path296"
         style="fill:#651216;fill-opacity:1;fill-rule:nonzero;stroke:none"
         d="m 1497,2519.11 c -17.64,-32.75 -26.37,-69.01 -27.42,-105.51 22.3,-48.81 44.98,-102.76 87.88,-115.21 47.91,-13.91 95.47,26.92 132.74,62.67 16.17,40.18 22.26,85.83 18.76,129.01 -62.96,-5.78 -132.98,1.49 -211.96,29.04" /><path
         id="path298"
         style="fill:#341415;fill-opacity:1;fill-rule:nonzero;stroke:none"
         d="m 1537.51,2506.54 c -32.72,-42.07 -44.69,-92.95 -43.43,-144.19 16.23,-30.29 35.54,-55.88 63.38,-63.96 24.86,-7.22 49.62,0.32 72.91,14.22 33.05,48.76 48.42,109.44 37.11,175.65 -40.4,0.1 -83.57,5.63 -129.97,18.28" /><path
         id="path300"
         style="fill:#f57f92;fill-opacity:1;fill-rule:nonzero;stroke:none"
         d="m 1590.27,2402.31 c -43.43,8.87 -88.96,-3.88 -110.31,-11.38 19.37,-41.73 41.19,-82 77.5,-92.54 41.86,-12.16 83.47,17.5 118.18,49.03 -15.54,18.08 -45.6,46.75 -85.37,54.89" /><path
         id="path302"
         style="fill:#f35d72;fill-opacity:1;fill-rule:nonzero;stroke:none"
         d="m 1522.68,2402.05 c -17.68,-3.06 -32.82,-7.64 -42.72,-11.12 19.37,-41.73 41.19,-82 77.5,-92.54 14.52,-4.22 29.01,-3.32 43.2,0.86 -53.67,3.65 -95.83,55.15 -77.98,102.8" /><path
         id="path304"
         style="fill:#b13646;fill-opacity:1;fill-rule:nonzero;stroke:none"
         d="m 1577.15,2298.3 c -6.44,0 -12.82,0.9 -18.94,2.68 -34.94,10.14 -56.09,48.9 -74.54,88.37 15.89,5.37 44.51,13.28 75.14,13.28 10.87,0 21.27,-1 30.92,-2.97 38.01,-7.77 67.18,-35.08 82.13,-52.02 -25.95,-23.36 -59.78,-49.34 -94.71,-49.34 z m 13.66,106.65 c -10,2.04 -20.77,3.08 -32,3.08 -33.34,0 -64.27,-9.12 -79.75,-14.56 l -2.81,-0.98 1.26,-2.7 c 19.28,-41.53 41.28,-82.98 79.19,-93.99 6.62,-1.93 13.5,-2.9 20.45,-2.9 v 0 c 37.66,0 73.39,28.07 100.3,52.52 l 1.95,1.76 -1.72,2 c -14.79,17.22 -45.76,47.36 -86.87,55.77" /><path
         id="path306"
         style="fill:#d94f3b;fill-opacity:1;fill-rule:nonzero;stroke:none"
         d="m 1752.9,2433.32 c -17.26,-20.74 -33.56,-40.33 -47.06,-53.36 l -6.84,-6.64 c -32.57,-31.66 -77.18,-75.02 -121.85,-75.02 -6.44,0 -12.82,0.9 -18.94,2.68 -39.65,11.51 -61.67,59.9 -82.97,106.71 -7.96,17.49 -15.48,34.02 -23.86,48.59 -23.45,40.79 -80.89,104.52 -107.48,133.15 116.17,-69.94 222.5,-103.99 324.5,-103.99 54.31,0 106.99,9.72 160.3,29.64 -24.36,-19.96 -51.32,-52.34 -75.8,-81.76 z m -84.5,57.52 c -106,0 -216.87,37.23 -338.94,113.8 l -18.65,11.71 15.27,-15.86 c 0.9,-0.93 90.1,-93.82 120.62,-146.89 8.25,-14.35 15.72,-30.77 23.63,-48.15 21.8,-47.91 44.34,-97.45 86.37,-109.65 6.62,-1.93 13.5,-2.9 20.45,-2.9 46.86,0 92.38,44.25 125.61,76.55 l 6.83,6.62 c 13.71,13.24 30.1,32.94 47.46,53.8 32.04,38.5 68.35,82.14 96.6,95.25 l -2.21,4.93 c -61.18,-26.39 -121.06,-39.21 -183.04,-39.21" /><path
         id="path308"
         style="fill:#f7915a;fill-opacity:1;fill-rule:nonzero;stroke:none"
         d="m 1573.65,2483.73 c 226.73,-35.99 329.48,83.57 329.48,83.57 l -617.39,83.58 c 0,0 86.85,-135.23 287.91,-167.15" /><path
         id="path310"
         style="fill:#f9a674;fill-opacity:1;fill-rule:nonzero;stroke:none"
         d="m 1900.58,2564.56 c 1.69,1.74 2.55,2.74 2.55,2.74 l -612.92,82.97 c 164.31,-161.08 416.92,-199.79 610.37,-85.71" /><path
         id="path312"
         style="fill:#fac09c;fill-opacity:1;fill-rule:nonzero;stroke:none"
         d="m 1894.14,2560.96 c 2.14,1.21 4.32,2.34 6.44,3.6 1.69,1.74 2.55,2.74 2.55,2.74 l -607.25,82.2 c 169.95,-135.49 396.73,-178.69 598.26,-88.54" /><path
         id="path314"
         style="fill:#d94f3b;fill-opacity:1;fill-rule:nonzero;stroke:none"
         d="m 1574.08,2486.4 c -197.46,31.34 -285.2,164.59 -286.07,165.93 l -4.54,-2.91 c 0.87,-1.36 89.81,-136.62 289.76,-168.35 29.48,-4.69 56.88,-6.71 82.29,-6.71 169.03,0 248.76,90.13 249.66,91.19 l -4.08,3.52 c -1.02,-1.18 -104.58,-117.98 -327.02,-82.67" /><path
         id="path316"
         style="fill:#f7915a;fill-opacity:1;fill-rule:nonzero;stroke:none"
         d="m 1739.2,2761.42 c -14.68,27.96 -58.68,78.15 -126.88,78.15 -77.33,-0.19 -121.69,-53.21 -132.41,-67.78 -6.35,10.64 -26.65,38.76 -62.2,34.93 -12.66,-1.38 -53.86,-10.76 -52.79,-73.81 0.99,-58.62 67.37,-86.26 89.72,-93.89 35.88,-89.45 108.86,-102.85 149.29,-102.85 50.57,0 102.78,21.05 124.6,50.15 62.9,24.65 101.68,74.4 96.58,123.97 -3.58,34.89 -36.23,54.54 -85.91,51.13" /><path
         id="path318"
         style="fill:#f9a674;fill-opacity:1;fill-rule:nonzero;stroke:none"
         d="m 1739.2,2761.42 c -14.68,27.96 -58.68,78.15 -126.88,78.15 -77.33,-0.19 -121.69,-53.21 -132.41,-67.78 -6.35,10.64 -26.65,38.76 -62.2,34.93 -12.05,-1.31 -49.99,-9.93 -52.64,-65.24 10.19,-55.07 73.07,-49.91 78.47,-44.51 52.74,-147.11 278.17,-146.89 314.86,-26.09 18.81,-36.61 59.3,-5.4 63.84,7.11 2.89,10.61 3.99,21.45 2.87,32.3 -3.58,34.89 -36.23,54.54 -85.91,51.13" /><path
         id="path320"
         style="fill:#fac09c;fill-opacity:1;fill-rule:nonzero;stroke:none"
         d="m 1739.2,2761.42 c -14.68,27.96 -58.68,78.15 -126.88,78.15 -77.33,-0.19 -121.69,-53.21 -132.41,-67.78 -6.35,10.64 -26.65,38.76 -62.2,34.93 -11.58,-1.26 -46.96,-9.39 -52.07,-59.06 9.11,-29.95 45.5,-49.12 82.95,-37.98 74.9,-142.72 247.65,-126.46 307.37,-28.01 10.46,-5.28 40.49,-32.73 67.06,-0.26 2.23,9.52 3.09,19.19 2.09,28.88 -3.58,34.89 -36.23,54.54 -85.91,51.13" /><path
         id="path322"
         style="fill:#d94f3b;fill-opacity:1;fill-rule:nonzero;stroke:none"
         d="m 1727.54,2588.83 -0.71,-0.28 -0.46,-0.62 c -21.32,-28.43 -72.82,-49.06 -122.44,-49.06 -39.67,0 -111.48,13.14 -146.78,101.16 l -0.46,1.15 -1.18,0.4 c -20.37,6.95 -86.93,34.1 -87.89,91.37 -1.03,60.77 38.3,69.77 50.38,71.08 2.14,0.24 4.22,0.35 6.25,0.35 29.85,0 47.24,-23.76 53.34,-33.97 l 2.08,-3.5 2.41,3.28 c 11.48,15.59 54.81,66.49 130.24,66.68 66.48,0 109.54,-48.21 124.5,-76.7 l 0.81,-1.56 1.76,0.11 c 3.62,0.26 7.21,0.38 10.67,0.38 42.16,0 69.2,-18.35 72.36,-49.09 4.98,-48.29 -33.15,-96.99 -94.88,-121.18 z m 13.23,175.39 c -16.25,29.73 -60.59,78.05 -128.46,78.05 -73.46,-0.18 -117.44,-46.88 -132.19,-65.75 -8.01,12.12 -26.23,33.25 -55.87,33.25 -2.24,0 -4.54,-0.12 -6.83,-0.37 -13.23,-1.44 -56.31,-11.2 -55.2,-76.53 1.01,-59.73 67.9,-88.15 90.38,-96 36.65,-89.94 110.47,-103.4 151.33,-103.4 50.83,0 103.76,21.25 126.29,50.61 63.6,25.19 102.78,75.94 97.58,126.49 -3.71,36.03 -36.81,56.57 -87.03,53.65" /><path
         id="path324"
         style="fill:#d94f3b;fill-opacity:1;fill-rule:nonzero;stroke:none"
         d="m 1454.33,2631.72 4.84,2.39 c -7.57,15.33 -15.63,52.3 -15.63,52.3 0.11,-1.55 2.75,-38.41 10.79,-54.69" /><path
         id="path326"
         style="fill:#d94f3b;fill-opacity:1;fill-rule:nonzero;stroke:none"
         d="m 1725.84,2579.27 c 23.36,27.78 32.19,77.91 32.56,80.03 0,0 -14.26,-49.88 -36.69,-76.56 l 4.13,-3.47" /><path
         id="path328"
         style="fill:#d94f3b;fill-opacity:1;fill-rule:nonzero;stroke:none"
         d="m 1216.6,2663.6 c 0,0 14.22,-11.6 34.71,-14.28 5.86,-0.77 12.18,-1.26 18.75,-1.26 9.64,0 19.83,1.05 29.96,3.82 10.13,2.77 26.42,18.47 26.42,18.47 -45.1,-32.93 -109.2,-7.02 -109.84,-6.75" /><path
         id="path330"
         style="fill:#d94f3b;fill-opacity:1;fill-rule:nonzero;stroke:none"
         d="m 1863.53,2597.15 c 0,0 4.54,-12.54 19.1,-21.77 15.1,-9.57 36.85,-21.82 63.48,-21.84 13.3,-0.01 23.12,5.75 23.12,5.75 -62.66,-6.96 -105.28,37.41 -105.7,37.86" /><path
         id="path332"
         style="fill:#f2f2f2;fill-opacity:1;fill-rule:nonzero;stroke:none"
         d="m 999.18,2886.89 c -43.36,-81.55 -55.336,-253.83 -55.336,-253.83 13.367,22.93 93.126,86.4 126.786,187.84 33.65,101.44 35.16,200.87 35.16,200.87 0,0 -63.26,-53.33 -106.61,-134.88" /><path
         id="path334"
         style="fill:#f2f2f2;fill-opacity:1;fill-rule:nonzero;stroke:none"
         d="m 1050.46,2733.29 c 0,0 -66.683,-71.58 -57.358,-197.12 9.338,-125.55 124.838,-295.81 124.838,-295.81 0,0 49.75,110.72 22.94,208.62 -26.8,97.9 -82.32,81.54 -90.42,284.31" /><path
         id="path336"
         style="fill:#f2f2f2;fill-opacity:1;fill-rule:nonzero;stroke:none"
         d="m 1984.83,2285.79 c -24.3,-68.38 10.79,-122.36 10.79,-180.84 33.29,61.18 115.41,151.54 115.41,211.82 0,60.29 -7.48,123.51 -7.48,123.51 0,0 -94.43,-86.11 -118.72,-154.49" /><path
         id="path338"
         style="fill:#fef9be;fill-opacity:1;fill-rule:nonzero;stroke:none"
         d="m 1728.63,1383.37 c -10.7,55.33 -52.63,73.55 -68.23,78.95 -15.59,5.39 -214.84,13.49 -214.84,13.49 0,0 184.55,-24.29 202.1,-30.36 17.54,-6.08 51.96,-46.56 60.05,-68.16 8.1,-21.59 8.78,-189.61 8.78,-189.61 0,0 13.49,166 12.14,195.69" /><path
         id="path340"
         style="fill:#fcdac5;fill-opacity:1;fill-rule:nonzero;stroke:none"
         d="m 1693.52,2790.28 c -1.01,-16.01 -35.29,-26.89 -76.57,-24.3 -41.29,2.58 -73.94,17.66 -72.94,33.67 1,16.01 35.28,26.89 76.57,24.3 41.29,-2.59 73.94,-17.66 72.94,-33.67" /><path
         id="path342"
         style="fill:#fcdac5;fill-opacity:1;fill-rule:nonzero;stroke:none"
         d="m 1338.32,2819.88 c -1.62,-10.31 -24.47,-15.29 -51.04,-11.12 -26.57,4.17 -46.8,15.9 -45.18,26.2 1.61,10.31 24.46,15.27 51.03,11.11 26.57,-4.16 46.8,-15.89 45.19,-26.19" /><path
         id="path344"
         style="fill:#fcdac5;fill-opacity:1;fill-rule:nonzero;stroke:none"
         d="m 1985.59,2689.42 c -1.62,-10.3 -24.46,-15.28 -51.03,-11.11 -26.57,4.17 -46.8,15.9 -45.19,26.2 1.62,10.3 24.47,15.28 51.04,11.11 26.57,-4.17 46.8,-15.9 45.18,-26.2" /><path
         id="path346"
         style="fill:#f2f2f2;fill-opacity:1;fill-rule:nonzero;stroke:none"
         d="m 2163.27,2916.71 c 0,0 24.06,-231 9.25,-264.38 -14.82,-33.37 -52.78,-183.86 4.82,-315.7 1.85,110.88 107.65,203.26 98.13,260.52 -9.52,57.25 -112.2,319.56 -112.2,319.56" /><path
         id="path348"
         style="fill:#ffffff;fill-opacity:1;fill-rule:nonzero;stroke:none"
         d="m 1801.01,2200.58 c 0,0 26.92,-84.53 -91.1,-149.05 -118.02,-64.51 -207,-144.46 -207,-144.46 0,0 8.11,71.05 -74.92,155.59 -83.03,84.53 -187.78,138.48 -211.39,290.8 103.89,-79.46 271.82,-145.09 293.52,-260.21 19.48,47.27 17.7,60.08 17.7,60.08 0,0 34.31,-50.63 12.49,-86.22 56.03,62.29 189.51,33.37 260.7,133.47" /><path
         id="path350"
         style="fill:#ffffff;fill-opacity:1;fill-rule:nonzero;stroke:none"
         d="m 2191.63,2754.07 c 0,0 -17.58,-128.29 -28.36,-190.73 -10.78,-62.43 0,-141.52 0,-141.52 0,0 22.27,44.2 48.01,131.72 25.75,87.52 -19.65,200.53 -19.65,200.53" /><path
         id="path352"
         style="fill:#ffffff;fill-opacity:1;fill-rule:nonzero;stroke:none"
         d="m 1025.09,2626.67 c 0,0 -24.17,-116.16 14.38,-177.69 38.54,-61.53 65.23,-77.11 76.36,-156.08 8.9,130.14 11.06,145.73 -14.49,187.99 -25.56,42.26 -76.25,145.78 -76.25,145.78" /></g></g></svg>